<svg width="235" height="114" viewBox="0 0 235 114" fill="none" xmlns="http://www.w3.org/2000/svg">
<path d="M30.2592 86.5163C21.6314 86.5163 14.9946 84.5806 10.3489 80.7091C5.70312 76.7271 3.38025 71.6942 3.38025 65.6105C3.38025 61.5178 4.37576 57.8676 6.3668 54.6598C8.35783 51.3414 11.0678 48.5761 14.4968 46.3638C18.0365 44.041 22.1291 42.2711 26.7749 41.0544C31.4206 39.8377 36.3429 39.2293 41.5417 39.2293C43.4221 39.2293 45.3025 39.2846 47.1829 39.3952C49.174 39.3952 51.2203 39.5058 53.322 39.727C55.5342 39.8377 57.8018 40.0589 60.1246 40.3907L60.4565 49.5163C58.4654 49.1845 56.4191 48.9632 54.3175 48.8526C52.3264 48.6314 50.3354 48.4655 48.3444 48.3549C46.3533 48.2442 44.4176 48.1889 42.5372 48.1889C38.5551 48.1889 34.9049 48.5208 31.5865 49.1845C28.2681 49.8481 25.3922 50.8436 22.9587 52.171C20.5252 53.4984 18.6448 55.2129 17.3175 57.3145C15.9901 59.4161 15.3264 61.9602 15.3264 64.9468C15.3264 67.2696 15.7136 69.2607 16.4879 70.9199C17.3728 72.4685 18.5342 73.7405 19.9722 74.736C21.4101 75.6209 23.0693 76.2846 24.9498 76.7271C26.9408 77.1695 29.0977 77.3907 31.4206 77.3907C35.7345 77.3907 39.5506 76.7271 42.869 75.3997C46.298 73.9617 49.174 71.9154 51.4968 69.2607C53.9303 66.606 55.7554 63.3429 56.9722 59.4714C58.1889 55.6 58.7973 51.1755 58.7973 46.1979C58.7973 38.6762 57.9124 32.8137 56.1426 28.6105C54.3728 24.4072 51.7181 21.4206 48.1785 19.6508C44.7495 17.881 40.3249 16.9961 34.9049 16.9961C31.2547 16.9961 27.6598 17.7151 24.1202 19.1531C20.5805 20.4804 17.3728 22.5821 14.4968 25.458L8.68966 17.8257C12.2293 14.2861 16.322 11.6314 20.9677 9.86158C25.6134 8.09178 30.5357 7.20688 35.7345 7.20688C40.7121 7.20688 45.2472 7.81525 49.3399 9.03198C53.4326 10.2487 56.9169 12.2951 59.7928 15.171C62.7793 17.9363 65.0469 21.6972 66.5955 26.4535C68.2547 31.2099 69.0843 37.183 69.0843 44.3728V84.6912H56.1426V73.0768C54.7046 75.8421 52.9348 78.1097 50.8332 79.8795C48.8421 81.6493 46.6852 83.032 44.3623 84.0275C42.0394 84.9124 39.6613 85.5208 37.2278 85.8526C34.7943 86.2951 32.4714 86.5163 30.2592 86.5163Z" fill="#FCFCFC"/>
<path d="M99.2816 113.561C95.742 113.561 92.4789 113.008 89.4923 111.902C86.6164 110.796 84.0723 109.192 81.8601 107.09L87.0036 98.9602L87.9991 97.467L88.9946 98.1306C89.2158 99.0155 89.603 99.7345 90.156 100.288C90.7091 100.951 91.7599 101.781 93.3085 102.776C94.304 103.108 95.3548 103.329 96.461 103.44C97.5671 103.661 98.7285 103.772 99.9453 103.772C102.932 103.772 105.421 103.053 107.412 101.615C109.513 100.177 111.338 97.9647 112.887 94.9782C114.436 91.9916 115.929 88.2308 117.367 83.6957L131.802 39.0634C133.461 33.9752 135.065 28.9423 136.613 23.9647C138.162 18.9871 139.213 13.9543 139.766 8.86607H151.712C150.938 13.9543 149.721 19.0978 148.062 24.2966C146.403 29.4954 144.633 34.6942 142.752 39.893L123.838 93.319C121.183 100.73 117.754 105.929 113.551 108.915C109.458 112.013 104.702 113.561 99.2816 113.561ZM85.8421 8.86607H98.2861L122.842 72.0813L117.533 86.8481L85.8421 8.86607Z" fill="#FCFCFC"/>
<path d="M202.815 86.3504C198.612 86.3504 194.575 85.9079 190.703 85.023C186.942 84.1381 183.347 82.8108 179.918 81.041C176.6 79.2711 173.503 77.0589 170.627 74.4042L177.264 63.1217L178.259 61.6284L179.255 62.2921C179.476 63.177 179.697 64.1172 179.918 65.1127C180.25 65.9976 181.024 67.1037 182.241 68.4311C184.564 70.754 187.329 72.6897 190.537 74.2383C193.856 75.6762 198.059 76.3952 203.147 76.3952C207.24 76.3952 210.669 75.8975 213.434 74.9019C216.31 73.9064 218.522 72.5238 220.071 70.754C221.619 68.8735 222.394 66.7166 222.394 64.2831C222.394 62.6239 222.062 61.1859 221.398 59.9692C220.734 58.6418 219.628 57.4251 218.08 56.319C216.642 55.2129 214.706 54.1067 212.273 53.0006C209.839 51.8945 206.853 50.7883 203.313 49.6822C197.561 48.023 192.528 46.0873 188.214 43.875C183.9 41.6628 180.582 39.1187 178.259 36.2427C175.936 33.2562 174.775 29.8825 174.775 26.1217C174.775 22.2502 175.826 18.9318 177.927 16.1665C180.029 13.2906 183.126 11.0783 187.219 9.52975C191.422 7.87055 196.566 7.04095 202.649 7.04095C206.189 7.04095 209.397 7.31749 212.273 7.87055C215.149 8.313 217.803 9.03199 220.237 10.0275C222.67 11.023 224.882 12.2951 226.873 13.8436C228.975 15.2816 230.966 16.9961 232.847 18.9871L226.044 27.2831L224.882 28.6105L224.053 27.7809C223.942 26.896 223.666 26.0664 223.223 25.2921C222.891 24.4072 222.117 23.3564 220.9 22.1396C218.356 20.1486 215.48 18.6553 212.273 17.6598C209.065 16.5537 205.968 16.0006 202.981 16.0006C198.557 16.0006 194.74 16.7749 191.533 18.3235C188.325 19.872 186.721 22.2502 186.721 25.458C186.721 27.1172 187.274 28.7764 188.38 30.4356C189.597 31.9842 191.754 33.588 194.851 35.2472C197.948 36.7958 202.373 38.3997 208.125 40.0589C214.43 42.0499 219.462 44.0963 223.223 46.1979C227.095 48.1889 229.86 50.5118 231.519 53.1665C233.289 55.8212 234.174 58.9737 234.174 62.6239C234.174 66.8272 233.013 70.754 230.69 74.4042C228.477 78.0544 225.048 80.9856 220.403 83.1979C215.757 85.2995 209.894 86.3504 202.815 86.3504Z" fill="#FCFCFC"/>
</svg>
