<svg width="232" height="109" viewBox="0 0 232 109" fill="none" xmlns="http://www.w3.org/2000/svg">
<path d="M27.2591 81.5163C18.6313 81.5163 11.9946 79.5806 7.34883 75.7091C2.70309 71.7271 0.380219 66.6942 0.380219 60.6105C0.380219 56.5178 1.37573 52.8676 3.36677 49.6598C5.3578 46.3414 8.06781 43.5761 11.4968 41.3638C15.0364 39.041 19.1291 37.2711 23.7748 36.0544C28.4206 34.8377 33.3428 34.2293 38.5416 34.2293C40.4221 34.2293 42.3025 34.2846 44.1829 34.3952C46.1739 34.3952 48.2203 34.5058 50.3219 34.727C52.5342 34.8377 54.8017 35.0589 57.1246 35.3907L57.4564 44.5163C55.4654 44.1845 53.4191 43.9632 51.3174 43.8526C49.3264 43.6314 47.3354 43.4655 45.3443 43.3549C43.3533 43.2442 41.4176 43.1889 39.5372 43.1889C35.5551 43.1889 31.9049 43.5208 28.5865 44.1845C25.2681 44.8481 22.3922 45.8436 19.9587 47.171C17.5252 48.4984 15.6448 50.2129 14.3174 52.3145C12.9901 54.4161 12.3264 56.9602 12.3264 59.9468C12.3264 62.2696 12.7136 64.2607 13.4878 65.9199C14.3727 67.4685 15.5342 68.7405 16.9721 69.736C18.4101 70.6209 20.0693 71.2846 21.9497 71.7271C23.9408 72.1695 26.0977 72.3907 28.4206 72.3907C32.7345 72.3907 36.5506 71.7271 39.869 70.3997C43.298 68.9617 46.1739 66.9154 48.4968 64.2607C50.9303 61.606 52.7554 58.3429 53.9721 54.4714C55.1889 50.6 55.7973 46.1755 55.7973 41.1979C55.7973 33.6762 54.9124 27.8137 53.1425 23.6105C51.3727 19.4072 48.718 16.4206 45.1784 14.6508C41.7494 12.881 37.3249 11.9961 31.9049 11.9961C28.2547 11.9961 24.6597 12.7151 21.1201 14.1531C17.5805 15.4804 14.3727 17.5821 11.4968 20.458L5.68963 12.8257C9.22925 9.28609 13.3219 6.63139 17.9677 4.86158C22.6134 3.09178 27.5357 2.20688 32.7345 2.20688C37.7121 2.20688 42.2472 2.81525 46.3399 4.03198C50.4325 5.24873 53.9168 7.29506 56.7928 10.171C59.7793 12.9363 62.0469 16.6972 63.5955 21.4535C65.2547 26.2099 66.0842 32.183 66.0842 39.3728V79.6912H53.1425V68.0768C51.7046 70.8421 49.9348 73.1097 47.8331 74.8795C45.8421 76.6493 43.6851 78.032 41.3623 79.0275C39.0394 79.9124 36.6612 80.5208 34.2278 80.8526C31.7943 81.2951 29.4714 81.5163 27.2591 81.5163Z" fill="#FCFCFC"/>
<path d="M96.2816 108.561C92.7419 108.561 89.4789 108.008 86.4923 106.902C83.6164 105.796 81.0723 104.192 78.86 102.09L84.0035 93.9602L84.999 92.467L85.9946 93.1306C86.2158 94.0155 86.6029 94.7345 87.156 95.2876C87.7091 95.9513 88.7599 96.7809 90.3085 97.7764C91.304 98.1082 92.3548 98.3294 93.4609 98.4401C94.5671 98.6613 95.7285 98.7719 96.9452 98.7719C99.9318 98.7719 102.421 98.0529 104.412 96.6149C106.513 95.177 108.338 92.9647 109.887 89.9782C111.436 86.9916 112.929 83.2308 114.367 78.6957L128.802 34.0634C130.461 28.9752 132.065 23.9423 133.613 18.9647C135.162 13.9871 136.213 8.95426 136.766 3.86607H148.712C147.938 8.95426 146.721 14.0978 145.062 19.2966C143.403 24.4954 141.633 29.6942 139.752 34.893L120.838 88.319C118.183 95.73 114.754 100.929 110.551 103.915C106.458 107.013 101.702 108.561 96.2816 108.561ZM82.8421 3.86607H95.286L119.842 67.0813L114.533 81.8481L82.8421 3.86607Z" fill="#FCFCFC"/>
<path d="M199.815 81.3504C195.612 81.3504 191.575 80.9079 187.703 80.023C183.942 79.1381 180.347 77.8108 176.918 76.041C173.6 74.2711 170.503 72.0589 167.627 69.4042L174.264 58.1217L175.259 56.6284L176.255 57.2921C176.476 58.177 176.697 59.1172 176.918 60.1127C177.25 60.9976 178.024 62.1037 179.241 63.4311C181.564 65.754 184.329 67.6897 187.537 69.2383C190.856 70.6762 195.059 71.3952 200.147 71.3952C204.24 71.3952 207.669 70.8975 210.434 69.9019C213.31 68.9064 215.522 67.5238 217.071 65.754C218.619 63.8735 219.394 61.7166 219.394 59.2831C219.394 57.6239 219.062 56.1859 218.398 54.9692C217.734 53.6418 216.628 52.4251 215.08 51.319C213.642 50.2129 211.706 49.1067 209.273 48.0006C206.839 46.8945 203.853 45.7883 200.313 44.6822C194.561 43.023 189.528 41.0873 185.214 38.875C180.9 36.6628 177.582 34.1187 175.259 31.2427C172.936 28.2562 171.775 24.8825 171.775 21.1217C171.775 17.2502 172.826 13.9318 174.927 11.1665C177.029 8.29058 180.126 6.07833 184.219 4.52975C188.422 2.87055 193.566 2.04095 199.649 2.04095C203.189 2.04095 206.397 2.31749 209.273 2.87055C212.149 3.313 214.803 4.03199 217.237 5.0275C219.67 6.02302 221.882 7.29507 223.873 8.84365C225.975 10.2816 227.966 11.9961 229.847 13.9871L223.044 22.2831L221.882 23.6105L221.053 22.7809C220.942 21.896 220.666 21.0664 220.223 20.2921C219.891 19.4072 219.117 18.3564 217.9 17.1396C215.356 15.1486 212.48 13.6553 209.273 12.6598C206.065 11.5537 202.968 11.0006 199.981 11.0006C195.557 11.0006 191.74 11.7749 188.533 13.3235C185.325 14.872 183.721 17.2502 183.721 20.458C183.721 22.1172 184.274 23.7764 185.38 25.4356C186.597 26.9842 188.754 28.588 191.851 30.2472C194.948 31.7958 199.373 33.3997 205.125 35.0589C211.43 37.0499 216.462 39.0963 220.223 41.1979C224.095 43.1889 226.86 45.5118 228.519 48.1665C230.289 50.8212 231.174 53.9737 231.174 57.6239C231.174 61.8272 230.012 65.754 227.69 69.4042C225.477 73.0544 222.048 75.9856 217.403 78.1979C212.757 80.2995 206.894 81.3504 199.815 81.3504Z" fill="#FCFCFC"/>
</svg>
