<svg width="402" height="115" viewBox="0 0 402 115" fill="none" xmlns="http://www.w3.org/2000/svg">
<path d="M29.1794 112.216C20.5516 112.216 13.9148 110.28 9.26909 106.409C4.62335 102.427 2.30048 97.3937 2.30048 91.31C2.30048 87.2173 3.29599 83.5671 5.28702 80.3593C7.27805 77.041 9.98807 74.2756 13.4171 72.0634C16.9567 69.7405 21.0494 67.9707 25.6951 66.754C30.3408 65.5372 35.2631 64.9288 40.4619 64.9288C42.3423 64.9288 44.2227 64.9841 46.1032 65.0948C48.0942 65.0948 50.1405 65.2054 52.2422 65.4266C54.4544 65.5372 56.722 65.7584 59.0449 66.0903L59.3767 75.2158C57.3857 74.884 55.3393 74.6628 53.2377 74.5522C51.2467 74.3309 49.2556 74.165 47.2646 74.0544C45.2736 73.9438 43.3378 73.8885 41.4574 73.8885C37.4754 73.8885 33.8251 74.2203 30.5068 74.884C27.1884 75.5477 24.3124 76.5432 21.879 77.8705C19.4455 79.1979 17.565 80.9124 16.2377 83.014C14.9103 85.1157 14.2467 87.6598 14.2467 90.6463C14.2467 92.9692 14.6338 94.9602 15.4081 96.6194C16.293 98.168 17.4544 99.4401 18.8924 100.436C20.3304 101.32 21.9896 101.984 23.87 102.427C25.861 102.869 28.018 103.09 30.3408 103.09C34.6547 103.09 38.4709 102.427 41.7893 101.099C45.2183 99.6613 48.0942 97.6149 50.4171 94.9602C52.8506 92.3055 54.6757 89.0424 55.8924 85.171C57.1091 81.2995 57.7175 76.875 57.7175 71.8975C57.7175 64.3758 56.8326 58.5133 55.0628 54.31C53.293 50.1067 50.6383 47.1202 47.0987 45.3504C43.6697 43.5806 39.2452 42.6957 33.8251 42.6957C30.1749 42.6957 26.58 43.4146 23.0404 44.8526C19.5008 46.18 16.293 48.2816 13.4171 51.1575L7.60989 43.5253C11.1495 39.9856 15.2422 37.3309 19.8879 35.5611C24.5337 33.7913 29.4559 32.9064 34.6547 32.9064C39.6323 32.9064 44.1674 33.5148 48.2601 34.7315C52.3528 35.9483 55.8371 37.9946 58.713 40.8705C61.6996 43.6359 63.9671 47.3967 65.5157 52.1531C67.1749 56.9094 68.0045 62.8825 68.0045 70.0723V110.391H55.0628V98.7764C53.6248 101.542 51.855 103.809 49.7534 105.579C47.7624 107.349 45.6054 108.732 43.2825 109.727C40.9597 110.612 38.5815 111.22 36.148 111.552C33.7145 111.995 31.3917 112.216 29.1794 112.216Z" fill="#FCFCFC"/>
<path d="M89.0763 110.391V34.5656H100.691V48.0051C102.682 44.9079 105.005 42.2532 107.659 40.041C110.314 37.7181 113.245 35.9483 116.453 34.7315C119.661 33.4042 122.979 32.7405 126.408 32.7405C130.611 32.7405 134.372 33.7913 137.691 35.893C141.009 37.9946 143.664 41.3683 145.655 46.0141C147.646 50.6598 148.641 56.7988 148.641 64.4311V110.391H137.027V64.7629C137.027 59.4535 136.419 55.2502 135.202 52.1531C133.985 48.9453 132.326 46.6777 130.224 45.3504C128.123 43.9124 125.744 43.1934 123.09 43.1934C120.546 43.1934 117.946 43.7465 115.292 44.8526C112.747 45.9587 110.369 47.5626 108.157 49.6643C105.945 51.6553 104.12 54.0888 102.682 56.9647C101.354 59.8407 100.691 63.1037 100.691 66.754V110.391H89.0763Z" fill="#FCFCFC"/>
<path d="M198.915 112.05C195.043 112.05 191.227 111.22 187.466 109.561C183.816 107.902 180.442 105.413 177.345 102.095C174.359 98.7764 171.981 94.5731 170.211 89.4849C168.441 84.3967 167.556 78.4789 167.556 71.7315C167.556 64.7629 168.496 58.8451 170.377 53.9782C172.257 49.0006 174.746 44.9632 177.843 41.8661C180.94 38.6583 184.369 36.3354 188.13 34.8975C191.891 33.3489 195.707 32.5746 199.578 32.5746C203.118 32.5746 206.271 33.1277 209.036 34.2338C211.912 35.3399 214.401 36.8885 216.502 38.8795C218.715 40.7599 220.429 43.0275 221.646 45.6822V0.0544128H234.256V1.21584C233.592 1.87952 233.149 2.59851 232.928 3.37279C232.818 4.14709 232.762 5.47444 232.762 7.35486L232.928 98.6105C232.928 100.601 232.984 102.593 233.094 104.584C233.315 106.464 233.813 108.4 234.587 110.391H222.807C222.254 109.063 221.867 107.736 221.646 106.409C221.425 105.081 221.259 103.809 221.148 102.593C221.148 101.265 221.148 99.9378 221.148 98.6105C219.599 101.265 217.719 103.643 215.507 105.745C213.294 107.736 210.806 109.285 208.04 110.391C205.275 111.497 202.233 112.05 198.915 112.05ZM200.74 101.597C204.39 101.597 207.487 100.878 210.031 99.4401C212.575 97.8915 214.622 95.7898 216.17 93.1351C217.719 90.3698 218.825 87.2173 219.489 83.6777C220.263 80.0275 220.65 76.156 220.65 72.0634C220.65 66.4221 219.931 61.3892 218.493 56.9647C217.055 52.4296 214.788 48.89 211.691 46.3459C208.593 43.6912 204.611 42.3638 199.744 42.3638C196.426 42.3638 193.439 43.0275 190.785 44.3549C188.241 45.5716 186.084 47.3967 184.314 49.8302C182.655 52.2637 181.383 55.1949 180.498 58.6239C179.613 61.9423 179.17 65.7031 179.17 69.9064C179.17 76.2114 180 81.742 181.659 86.4984C183.318 91.2547 185.752 94.9602 188.96 97.6149C192.167 100.27 196.094 101.597 200.74 101.597Z" fill="#FCFCFC"/>
<path d="M288.179 112.05C282.649 112.05 277.616 111.22 273.081 109.561C268.546 107.791 264.619 105.247 261.3 101.929C258.093 98.6105 255.604 94.5178 253.834 89.6508C252.064 84.6732 251.179 79.032 251.179 72.727C251.179 66.3115 252.064 60.6149 253.834 55.6374C255.715 50.6598 258.203 46.5118 261.3 43.1934C264.508 39.7644 268.214 37.165 272.417 35.3952C276.731 33.6254 281.266 32.7405 286.022 32.7405C290.336 32.7405 294.374 33.4595 298.135 34.8975C301.895 36.3354 305.158 38.5477 307.924 41.5342C310.689 44.4102 312.846 48.1157 314.395 52.6508C316.054 57.1859 316.883 62.5507 316.883 68.745C316.883 69.6299 316.828 70.5701 316.718 71.5656C316.718 72.4505 316.662 73.3354 316.552 74.2203H262.628C262.849 79.0873 263.679 83.3459 265.117 86.9961C266.555 90.5357 268.435 93.467 270.758 95.7898C273.081 98.0021 275.735 99.6613 278.722 100.767C281.819 101.874 285.082 102.427 288.511 102.427C291.166 102.427 293.655 102.15 295.978 101.597C298.3 100.933 300.457 99.9931 302.448 98.7764C304.55 97.449 306.431 95.8451 308.09 93.9647L314.726 100.436C312.625 102.98 310.191 105.137 307.426 106.906C304.771 108.676 301.84 109.948 298.632 110.723C295.425 111.607 291.94 112.05 288.179 112.05ZM263.126 64.9288H304.771C304.771 61.3892 304.274 58.2368 303.278 55.4714C302.393 52.5955 301.066 50.162 299.296 48.171C297.637 46.0694 295.59 44.5208 293.157 43.5253C290.834 42.4191 288.179 41.8661 285.193 41.8661C282.538 41.8661 279.994 42.3085 277.561 43.1934C275.238 44.0783 273.081 45.5163 271.09 47.5073C269.099 49.3877 267.384 51.7659 265.946 54.6418C264.619 57.5178 263.679 60.9468 263.126 64.9288Z" fill="#FCFCFC"/>
<path d="M345.753 34.5656H358.197L357.7 56.6329L356.206 54.1441C356.87 50.7151 358.031 47.6732 359.691 45.0185C361.35 42.3638 363.341 40.1516 365.664 38.3818C367.987 36.5013 370.531 35.1187 373.296 34.2338C376.061 33.2383 378.937 32.7405 381.924 32.7405C385.906 32.7405 389.556 33.4595 392.874 34.8975C396.303 36.2248 399.345 38.2712 402 41.0365L396.691 50.3279L396.027 51.8212L394.865 51.1575C394.644 50.2726 394.312 49.443 393.87 48.6688C393.427 47.8945 392.487 46.9543 391.049 45.8481C389.28 44.742 387.62 44.023 386.072 43.6912C384.634 43.2487 382.975 43.0275 381.094 43.0275C378.329 43.0275 375.564 43.5806 372.798 44.6867C370.033 45.6822 367.489 47.2861 365.166 49.4984C362.954 51.7106 361.184 54.5312 359.857 57.9602C358.529 61.3892 357.865 65.4819 357.865 70.2383V110.557H345.753V34.5656Z" fill="#FCFCFC"/>
</svg>
