<svg width="840" height="45" viewBox="0 0 840 45" fill="none" xmlns="http://www.w3.org/2000/svg">
<path d="M59.94 43.2809C54.82 43.2809 51.14 42.1609 48.9 39.9209C46.7 37.6809 45.6 34.4409 45.6 30.2009V1.28091H54.06V30.2009C54.06 32.4009 54.54 34.0409 55.5 35.1209C56.46 36.1609 57.94 36.6809 59.94 36.6809H73.38V43.2809H59.94Z" fill="#F4CB29"/>
<path d="M114.291 44.0609C108.811 44.0609 104.671 42.9009 101.871 40.5809C99.0711 38.2209 97.6711 34.9609 97.6711 30.8009V1.28091H106.131V30.8009C106.131 35.2409 108.851 37.4609 114.291 37.4609C119.731 37.4609 122.451 35.2409 122.451 30.8009V1.28091H130.911V30.8009C130.911 34.9609 129.511 38.2209 126.711 40.5809C123.911 42.9009 119.771 44.0609 114.291 44.0609Z" fill="#F4CB29"/>
<path d="M177.161 22.8209L189.881 43.2809H180.281L171.701 29.4209L163.121 43.2809H153.701L167.021 21.8609L154.301 1.28091H163.841L172.481 15.2609L181.121 1.28091H190.481L177.161 22.8209Z" fill="#F4CB29"/>
<path d="M229.918 44.0609C224.438 44.0609 220.298 42.9009 217.498 40.5809C214.698 38.2209 213.298 34.9609 213.298 30.8009V1.28091H221.758V30.8009C221.758 35.2409 224.478 37.4609 229.918 37.4609C235.358 37.4609 238.078 35.2409 238.078 30.8009V1.28091H246.538V30.8009C246.538 34.9609 245.138 38.2209 242.338 40.5809C239.538 42.9009 235.398 44.0609 229.918 44.0609Z" fill="#F4CB29"/>
<path d="M308.447 43.2809H299.507L296.747 33.9809C296.187 32.0609 295.627 30.5809 295.067 29.5409C294.507 28.4609 293.747 27.6409 292.787 27.0809C291.827 26.5209 290.547 26.2409 288.947 26.2409H282.887V43.2809H274.427V1.28091H291.407C296.527 1.28091 300.307 2.30091 302.747 4.34091C305.187 6.34091 306.407 9.48091 306.407 13.7609C306.407 16.5209 305.667 18.7409 304.187 20.4209C302.747 22.1009 300.747 23.1809 298.187 23.6609C300.227 24.3409 301.767 25.5209 302.807 27.2009C303.847 28.8809 304.807 31.1609 305.687 34.0409L308.447 43.2809ZM291.647 19.6409C293.487 19.6409 294.987 19.1609 296.147 18.2009C297.347 17.2009 297.947 15.7209 297.947 13.7609C297.947 11.8009 297.347 10.3409 296.147 9.38091C294.987 8.38091 293.487 7.88091 291.647 7.88091H282.887V19.6409H291.647Z" fill="#F4CB29"/>
<path d="M342.64 25.2809L328.84 1.28091H338.26L347.08 17.5409L355.72 1.28091H365.2L351.1 25.2809V43.2809H342.64V25.2809Z" fill="#F4CB29"/>
<path d="M438.743 44.0009C435.863 44.0009 433.443 43.6809 431.483 43.0409C429.563 42.4009 427.943 41.5209 426.623 40.4009C425.303 39.2809 423.943 37.7809 422.543 35.9009L428.243 31.1609C429.883 33.4409 431.463 35.0609 432.983 36.0209C434.543 36.9409 436.463 37.4009 438.743 37.4009C441.903 37.4009 444.203 36.9409 445.643 36.0209C447.083 35.1009 447.803 33.6209 447.803 31.5809C447.803 30.5409 447.463 29.7009 446.783 29.0609C446.103 28.3809 444.923 27.7609 443.243 27.2009C441.603 26.6409 439.143 26.0209 435.863 25.3409C432.023 24.5409 429.163 23.1209 427.283 21.0809C425.443 19.0009 424.523 16.2409 424.523 12.8009C424.523 10.3209 425.143 8.16091 426.383 6.32091C427.663 4.48091 429.463 3.06091 431.783 2.06091C434.103 1.06091 436.803 0.560913 439.883 0.560913C443.883 0.560913 447.063 1.16091 449.423 2.36091C451.783 3.52091 453.703 5.24091 455.183 7.52091L449.603 12.0809C448.363 10.8409 447.323 9.90091 446.483 9.26091C445.683 8.58091 444.763 8.06091 443.723 7.70091C442.683 7.34091 441.403 7.16091 439.883 7.16091C437.603 7.16091 435.883 7.66091 434.723 8.66091C433.563 9.66091 432.983 11.1009 432.983 12.9809C432.983 14.7409 433.723 16.0409 435.203 16.8809C436.683 17.6809 438.583 18.3409 440.903 18.8609C444.343 19.5809 447.083 20.3209 449.123 21.0809C451.163 21.8409 452.863 23.0609 454.223 24.7409C455.583 26.4209 456.263 28.7209 456.263 31.6409C456.263 35.8009 454.803 38.9009 451.883 40.9409C449.003 42.9809 444.623 44.0009 438.743 44.0009Z" fill="#F4CB29"/>
<path d="M482.77 1.28091H491.23V18.9209H507.55V1.28091H516.01V43.2809H507.55V25.5209H491.23V43.2809H482.77V1.28091Z" fill="#F4CB29"/>
<path d="M560.508 44.0609C555.028 44.0609 550.888 42.9009 548.088 40.5809C545.288 38.2209 543.888 34.9609 543.888 30.8009V1.28091H552.348V30.8009C552.348 35.2409 555.068 37.4609 560.508 37.4609C565.948 37.4609 568.668 35.2409 568.668 30.8009V1.28091H577.128V30.8009C577.128 34.9609 575.728 38.2209 572.928 40.5809C570.128 42.9009 565.988 44.0609 560.508 44.0609Z" fill="#F4CB29"/>
<path d="M613.778 7.88091H601.118V1.28091H634.898V7.88091H622.238V43.2809H613.778V7.88091Z" fill="#F4CB29"/>
<path d="M669.13 7.88091H656.47V1.28091H690.25V7.88091H677.59V43.2809H669.13V7.88091Z" fill="#F4CB29"/>
<path d="M728.563 43.2809C723.443 43.2809 719.763 42.1609 717.523 39.9209C715.323 37.6809 714.223 34.4409 714.223 30.2009V1.28091H722.683V30.2009C722.683 32.4009 723.163 34.0409 724.123 35.1209C725.083 36.1609 726.563 36.6809 728.563 36.6809H742.003V43.2809H728.563Z" fill="#F4CB29"/>
<path d="M780.228 43.2809C774.908 43.2809 771.088 42.1609 768.768 39.9209C766.448 37.6809 765.288 34.4409 765.288 30.2009V14.3609C765.288 10.1209 766.448 6.88091 768.768 4.64091C771.088 2.40091 774.908 1.28091 780.228 1.28091H794.268V7.88091H780.228C778.028 7.88091 776.388 8.40091 775.308 9.44091C774.268 10.4809 773.748 12.1209 773.748 14.3609V18.9809H791.628V25.5809H773.748V30.2009C773.748 32.4009 774.268 34.0409 775.308 35.1209C776.388 36.1609 778.028 36.6809 780.228 36.6809H794.388V43.2809H780.228Z" fill="#F4CB29"/>
</svg>
