<svg width="840" height="436" viewBox="0 0 840 436" fill="none" xmlns="http://www.w3.org/2000/svg">
<path d="M74.94 432.25C69.82 432.25 66.14 431.13 63.9 428.89C61.7 426.65 60.6 423.41 60.6 419.17V390.25H69.06V419.17C69.06 421.37 69.54 423.01 70.5 424.09C71.46 425.13 72.94 425.65 74.94 425.65H88.38V432.25H74.94Z" fill="#F4CB29"/>
<path d="M129.291 433.03C123.811 433.03 119.671 431.87 116.871 429.55C114.071 427.19 112.671 423.93 112.671 419.77V390.25H121.131V419.77C121.131 424.21 123.851 426.43 129.291 426.43C134.731 426.43 137.451 424.21 137.451 419.77V390.25H145.911V419.77C145.911 423.93 144.511 427.19 141.711 429.55C138.911 431.87 134.771 433.03 129.291 433.03Z" fill="#F4CB29"/>
<path d="M192.161 411.79L204.881 432.25H195.281L186.701 418.39L178.121 432.25H168.701L182.021 410.83L169.301 390.25H178.841L187.481 404.23L196.121 390.25H205.481L192.161 411.79Z" fill="#F4CB29"/>
<path d="M244.918 433.03C239.438 433.03 235.298 431.87 232.498 429.55C229.698 427.19 228.298 423.93 228.298 419.77V390.25H236.758V419.77C236.758 424.21 239.478 426.43 244.918 426.43C250.358 426.43 253.078 424.21 253.078 419.77V390.25H261.538V419.77C261.538 423.93 260.138 427.19 257.338 429.55C254.538 431.87 250.398 433.03 244.918 433.03Z" fill="#F4CB29"/>
<path d="M323.447 432.25H314.507L311.747 422.95C311.187 421.03 310.627 419.55 310.067 418.51C309.507 417.43 308.747 416.61 307.787 416.05C306.827 415.49 305.547 415.21 303.947 415.21H297.887V432.25H289.427V390.25H306.407C311.527 390.25 315.307 391.27 317.747 393.31C320.187 395.31 321.407 398.45 321.407 402.73C321.407 405.49 320.667 407.71 319.187 409.39C317.747 411.07 315.747 412.15 313.187 412.63C315.227 413.31 316.767 414.49 317.807 416.17C318.847 417.85 319.807 420.13 320.687 423.01L323.447 432.25ZM306.647 408.61C308.487 408.61 309.987 408.13 311.147 407.17C312.347 406.17 312.947 404.69 312.947 402.73C312.947 400.77 312.347 399.31 311.147 398.35C309.987 397.35 308.487 396.85 306.647 396.85H297.887V408.61H306.647Z" fill="#F4CB29"/>
<path d="M357.64 414.25L343.84 390.25H353.26L362.08 406.51L370.72 390.25H380.2L366.1 414.25V432.25H357.64V414.25Z" fill="#F4CB29"/>
<path d="M453.743 432.97C450.863 432.97 448.443 432.65 446.483 432.01C444.563 431.37 442.943 430.49 441.623 429.37C440.303 428.25 438.943 426.75 437.543 424.87L443.243 420.13C444.883 422.41 446.463 424.03 447.983 424.99C449.543 425.91 451.463 426.37 453.743 426.37C456.903 426.37 459.203 425.91 460.643 424.99C462.083 424.07 462.803 422.59 462.803 420.55C462.803 419.51 462.463 418.67 461.783 418.03C461.103 417.35 459.923 416.73 458.243 416.17C456.603 415.61 454.143 414.99 450.863 414.31C447.023 413.51 444.163 412.09 442.283 410.05C440.443 407.97 439.523 405.21 439.523 401.77C439.523 399.29 440.143 397.13 441.383 395.29C442.663 393.45 444.463 392.03 446.783 391.03C449.103 390.03 451.803 389.53 454.883 389.53C458.883 389.53 462.063 390.13 464.423 391.33C466.783 392.49 468.703 394.21 470.183 396.49L464.603 401.05C463.363 399.81 462.323 398.87 461.483 398.23C460.683 397.55 459.763 397.03 458.723 396.67C457.683 396.31 456.403 396.13 454.883 396.13C452.603 396.13 450.883 396.63 449.723 397.63C448.563 398.63 447.983 400.07 447.983 401.95C447.983 403.71 448.723 405.01 450.203 405.85C451.683 406.65 453.583 407.31 455.903 407.83C459.343 408.55 462.083 409.29 464.123 410.05C466.163 410.81 467.863 412.03 469.223 413.71C470.583 415.39 471.263 417.69 471.263 420.61C471.263 424.77 469.803 427.87 466.883 429.91C464.003 431.95 459.623 432.97 453.743 432.97Z" fill="#F4CB29"/>
<path d="M497.77 390.25H506.23V407.89H522.55V390.25H531.01V432.25H522.55V414.49H506.23V432.25H497.77V390.25Z" fill="#F4CB29"/>
<path d="M575.508 433.03C570.028 433.03 565.888 431.87 563.088 429.55C560.288 427.19 558.888 423.93 558.888 419.77V390.25H567.348V419.77C567.348 424.21 570.068 426.43 575.508 426.43C580.948 426.43 583.668 424.21 583.668 419.77V390.25H592.128V419.77C592.128 423.93 590.728 427.19 587.928 429.55C585.128 431.87 580.988 433.03 575.508 433.03Z" fill="#F4CB29"/>
<path d="M628.778 396.85H616.118V390.25H649.898V396.85H637.238V432.25H628.778V396.85Z" fill="#F4CB29"/>
<path d="M684.13 396.85H671.47V390.25H705.25V396.85H692.59V432.25H684.13V396.85Z" fill="#F4CB29"/>
<path d="M743.563 432.25C738.443 432.25 734.763 431.13 732.523 428.89C730.323 426.65 729.223 423.41 729.223 419.17V390.25H737.683V419.17C737.683 421.37 738.163 423.01 739.123 424.09C740.083 425.13 741.563 425.65 743.563 425.65H757.003V432.25H743.563Z" fill="#F4CB29"/>
<path d="M795.228 432.25C789.908 432.25 786.088 431.13 783.768 428.89C781.448 426.65 780.288 423.41 780.288 419.17V403.33C780.288 399.09 781.448 395.85 783.768 393.61C786.088 391.37 789.908 390.25 795.228 390.25H809.268V396.85H795.228C793.028 396.85 791.388 397.37 790.308 398.41C789.268 399.45 788.748 401.09 788.748 403.33V407.95H806.628V414.55H788.748V419.17C788.748 421.37 789.268 423.01 790.308 424.09C791.388 425.13 793.028 425.65 795.228 425.65H809.388V432.25H795.228Z" fill="#F4CB29"/>
<path d="M402.259 326.486C393.631 326.486 386.995 324.55 382.349 320.679C377.703 316.697 375.38 311.664 375.38 305.58C375.38 301.487 376.376 297.837 378.367 294.629C380.358 291.311 383.068 288.546 386.497 286.333C390.036 284.01 394.129 282.241 398.775 281.024C403.421 279.807 408.343 279.199 413.542 279.199C415.422 279.199 417.302 279.254 419.183 279.365C421.174 279.365 423.22 279.475 425.322 279.697C427.534 279.807 429.802 280.028 432.125 280.36L432.456 289.486C430.465 289.154 428.419 288.933 426.317 288.822C424.326 288.601 422.335 288.435 420.344 288.324C418.353 288.214 416.418 288.158 414.537 288.158C410.555 288.158 406.905 288.49 403.586 289.154C400.268 289.818 397.392 290.813 394.959 292.141C392.525 293.468 390.645 295.182 389.317 297.284C387.99 299.386 387.326 301.93 387.326 304.916C387.326 307.239 387.714 309.23 388.488 310.889C389.373 312.438 390.534 313.71 391.972 314.706C393.41 315.59 395.069 316.254 396.95 316.697C398.941 317.139 401.098 317.36 403.421 317.36C407.734 317.36 411.551 316.697 414.869 315.369C418.298 313.931 421.174 311.885 423.497 309.23C425.93 306.576 427.755 303.312 428.972 299.441C430.189 295.57 430.797 291.145 430.797 286.167C430.797 278.646 429.912 272.783 428.143 268.58C426.373 264.377 423.718 261.39 420.178 259.62C416.749 257.851 412.325 256.966 406.905 256.966C403.255 256.966 399.66 257.685 396.12 259.123C392.581 260.45 389.373 262.552 386.497 265.428L380.69 257.795C384.229 254.256 388.322 251.601 392.968 249.831C397.613 248.061 402.536 247.176 407.734 247.176C412.712 247.176 417.247 247.785 421.34 249.002C425.433 250.218 428.917 252.265 431.793 255.141C434.779 257.906 437.047 261.667 438.595 266.423C440.255 271.179 441.084 277.152 441.084 284.342V324.661H428.143V313.046C426.705 315.812 424.935 318.079 422.833 319.849C420.842 321.619 418.685 323.002 416.362 323.997C414.039 324.882 411.661 325.49 409.228 325.822C406.794 326.265 404.471 326.486 402.259 326.486Z" fill="#FCFCFC"/>
<path d="M471.282 353.531C467.742 353.531 464.479 352.978 461.492 351.871C458.616 350.765 456.072 349.161 453.86 347.06L459.004 338.93L459.999 337.437L460.995 338.1C461.216 338.985 461.603 339.704 462.156 340.257C462.709 340.921 463.76 341.75 465.308 342.746C466.304 343.078 467.355 343.299 468.461 343.41C469.567 343.631 470.728 343.741 471.945 343.741C474.932 343.741 477.421 343.022 479.412 341.584C481.513 340.147 483.338 337.934 484.887 334.948C486.436 331.961 487.929 328.2 489.367 323.665L503.802 279.033C505.461 273.945 507.065 268.912 508.613 263.934C510.162 258.957 511.213 253.924 511.766 248.836H523.712C522.938 253.924 521.721 259.067 520.062 264.266C518.403 269.465 516.633 274.664 514.752 279.863L495.838 333.289C493.183 340.7 489.754 345.898 485.551 348.885C481.458 351.982 476.702 353.531 471.282 353.531ZM457.842 248.836H470.286L494.842 312.051L489.533 326.818L457.842 248.836Z" fill="#FCFCFC"/>
<path d="M574.815 326.32C570.612 326.32 566.575 325.877 562.703 324.993C558.942 324.108 555.347 322.78 551.918 321.01C548.6 319.241 545.503 317.028 542.627 314.374L549.264 303.091L550.259 301.598L551.255 302.262C551.476 303.147 551.697 304.087 551.918 305.082C552.25 305.967 553.024 307.073 554.241 308.401C556.564 310.723 559.329 312.659 562.537 314.208C565.856 315.646 570.059 316.365 575.147 316.365C579.24 316.365 582.669 315.867 585.434 314.871C588.31 313.876 590.522 312.493 592.071 310.723C593.619 308.843 594.394 306.686 594.394 304.253C594.394 302.593 594.062 301.155 593.398 299.939C592.734 298.611 591.628 297.395 590.08 296.289C588.642 295.182 586.706 294.076 584.273 292.97C581.839 291.864 578.853 290.758 575.313 289.652C569.561 287.993 564.528 286.057 560.214 283.845C555.9 281.632 552.582 279.088 550.259 276.212C547.936 273.226 546.775 269.852 546.775 266.091C546.775 262.22 547.826 258.901 549.927 256.136C552.029 253.26 555.126 251.048 559.219 249.499C563.422 247.84 568.566 247.01 574.649 247.01C578.189 247.01 581.397 247.287 584.273 247.84C587.149 248.283 589.803 249.002 592.237 249.997C594.67 250.993 596.882 252.265 598.873 253.813C600.975 255.251 602.966 256.966 604.847 258.957L598.044 267.253L596.882 268.58L596.053 267.75C595.942 266.866 595.666 266.036 595.223 265.262C594.891 264.377 594.117 263.326 592.9 262.109C590.356 260.118 587.48 258.625 584.273 257.629C581.065 256.523 577.968 255.97 574.981 255.97C570.557 255.97 566.74 256.744 563.533 258.293C560.325 259.842 558.721 262.22 558.721 265.428C558.721 267.087 559.274 268.746 560.38 270.405C561.597 271.954 563.754 273.558 566.851 275.217C569.948 276.765 574.373 278.369 580.125 280.028C586.43 282.019 591.462 284.066 595.223 286.167C599.095 288.158 601.86 290.481 603.519 293.136C605.289 295.791 606.174 298.943 606.174 302.593C606.174 306.797 605.012 310.723 602.69 314.374C600.477 318.024 597.048 320.955 592.403 323.167C587.757 325.269 581.894 326.32 574.815 326.32Z" fill="#FCFCFC"/>
<path d="M467.179 215.185C458.552 215.185 451.915 213.25 447.269 209.378C442.623 205.396 440.3 200.363 440.3 194.28C440.3 190.187 441.296 186.537 443.287 183.329C445.278 180.011 447.988 177.245 451.417 175.033C454.957 172.71 459.049 170.94 463.695 169.724C468.341 168.507 473.263 167.898 478.462 167.898C480.342 167.898 482.223 167.954 484.103 168.064C486.094 168.064 488.141 168.175 490.242 168.396C492.454 168.507 494.722 168.728 497.045 169.06L497.377 178.185C495.386 177.854 493.339 177.632 491.238 177.522C489.247 177.301 487.256 177.135 485.265 177.024C483.274 176.913 481.338 176.858 479.457 176.858C475.475 176.858 471.825 177.19 468.507 177.854C465.188 178.517 462.312 179.513 459.879 180.84C457.445 182.167 455.565 183.882 454.238 185.984C452.91 188.085 452.247 190.629 452.247 193.616C452.247 195.939 452.634 197.93 453.408 199.589C454.293 201.138 455.454 202.41 456.892 203.405C458.33 204.29 459.99 204.954 461.87 205.396C463.861 205.839 466.018 206.06 468.341 206.06C472.655 206.06 476.471 205.396 479.789 204.069C483.218 202.631 486.094 200.585 488.417 197.93C490.851 195.275 492.676 192.012 493.892 188.141C495.109 184.269 495.717 179.845 495.717 174.867C495.717 167.345 494.833 161.483 493.063 157.28C491.293 153.076 488.638 150.09 485.099 148.32C481.67 146.55 477.245 145.665 471.825 145.665C468.175 145.665 464.58 146.384 461.04 147.822C457.501 149.15 454.293 151.251 451.417 154.127L445.61 146.495C449.149 142.955 453.242 140.301 457.888 138.531C462.534 136.761 467.456 135.876 472.655 135.876C477.632 135.876 482.167 136.484 486.26 137.701C490.353 138.918 493.837 140.964 496.713 143.84C499.7 146.605 501.967 150.366 503.516 155.123C505.175 159.879 506.004 165.852 506.004 173.042V213.36H493.063V201.746C491.625 204.511 489.855 206.779 487.753 208.549C485.762 210.318 483.605 211.701 481.283 212.697C478.96 213.582 476.581 214.19 474.148 214.522C471.714 214.964 469.392 215.185 467.179 215.185Z" fill="#FCFCFC"/>
<path d="M527.076 213.36V137.535H538.691V150.975C540.682 147.877 543.004 145.223 545.659 143.011C548.314 140.688 551.245 138.918 554.453 137.701C557.661 136.374 560.979 135.71 564.408 135.71C568.611 135.71 572.372 136.761 575.691 138.863C579.009 140.964 581.664 144.338 583.655 148.984C585.646 153.629 586.641 159.768 586.641 167.401V213.36H575.027V167.733C575.027 162.423 574.419 158.22 573.202 155.123C571.985 151.915 570.326 149.647 568.224 148.32C566.123 146.882 563.744 146.163 561.09 146.163C558.546 146.163 555.946 146.716 553.291 147.822C550.747 148.928 548.369 150.532 546.157 152.634C543.945 154.625 542.12 157.058 540.682 159.934C539.354 162.81 538.691 166.073 538.691 169.724V213.36H527.076Z" fill="#FCFCFC"/>
<path d="M636.915 215.019C633.043 215.019 629.227 214.19 625.466 212.531C621.816 210.872 618.442 208.383 615.345 205.064C612.359 201.746 609.981 197.543 608.211 192.454C606.441 187.366 605.556 181.448 605.556 174.701C605.556 167.733 606.496 161.815 608.377 156.948C610.257 151.97 612.746 147.933 615.843 144.836C618.94 141.628 622.369 139.305 626.13 137.867C629.891 136.318 633.707 135.544 637.578 135.544C641.118 135.544 644.271 136.097 647.036 137.203C649.912 138.309 652.401 139.858 654.502 141.849C656.714 143.73 658.429 145.997 659.646 148.652V103.024H672.256V104.185C671.592 104.849 671.149 105.568 670.928 106.342C670.818 107.117 670.762 108.444 670.762 110.324L670.928 201.58C670.928 203.571 670.984 205.562 671.094 207.553C671.315 209.434 671.813 211.369 672.587 213.36H660.807C660.254 212.033 659.867 210.706 659.646 209.378C659.424 208.051 659.259 206.779 659.148 205.562C659.148 204.235 659.148 202.907 659.148 201.58C657.599 204.235 655.719 206.613 653.507 208.715C651.294 210.706 648.806 212.254 646.04 213.36C643.275 214.466 640.233 215.019 636.915 215.019ZM638.74 204.567C642.39 204.567 645.487 203.848 648.031 202.41C650.575 200.861 652.622 198.759 654.17 196.105C655.719 193.339 656.825 190.187 657.489 186.647C658.263 182.997 658.65 179.126 658.65 175.033C658.65 169.392 657.931 164.359 656.493 159.934C655.055 155.399 652.788 151.86 649.691 149.315C646.593 146.661 642.611 145.333 637.744 145.333C634.426 145.333 631.439 145.997 628.785 147.324C626.241 148.541 624.084 150.366 622.314 152.8C620.655 155.233 619.383 158.164 618.498 161.593C617.613 164.912 617.17 168.673 617.17 172.876C617.17 179.181 618 184.712 619.659 189.468C621.318 194.224 623.752 197.93 626.96 200.585C630.167 203.239 634.094 204.567 638.74 204.567Z" fill="#FCFCFC"/>
<path d="M726.179 215.019C720.649 215.019 715.616 214.19 711.081 212.531C706.546 210.761 702.619 208.217 699.3 204.898C696.093 201.58 693.604 197.487 691.834 192.62C690.064 187.643 689.179 182.002 689.179 175.697C689.179 169.281 690.064 163.585 691.834 158.607C693.714 153.629 696.203 149.481 699.3 146.163C702.508 142.734 706.214 140.135 710.417 138.365C714.731 136.595 719.266 135.71 724.022 135.71C728.336 135.71 732.374 136.429 736.135 137.867C739.895 139.305 743.158 141.517 745.924 144.504C748.689 147.38 750.846 151.085 752.395 155.62C754.054 160.156 754.883 165.52 754.883 171.715C754.883 172.599 754.828 173.54 754.717 174.535C754.717 175.42 754.662 176.305 754.552 177.19H700.628C700.849 182.057 701.679 186.315 703.117 189.966C704.555 193.505 706.435 196.437 708.758 198.759C711.081 200.972 713.735 202.631 716.722 203.737C719.819 204.843 723.082 205.396 726.511 205.396C729.166 205.396 731.655 205.12 733.978 204.567C736.3 203.903 738.457 202.963 740.448 201.746C742.55 200.419 744.43 198.815 746.09 196.934L752.726 203.405C750.625 205.949 748.191 208.106 745.426 209.876C742.771 211.646 739.84 212.918 736.632 213.692C733.425 214.577 729.94 215.019 726.179 215.019ZM701.126 167.898H742.771C742.771 164.359 742.274 161.206 741.278 158.441C740.393 155.565 739.066 153.132 737.296 151.141C735.637 149.039 733.59 147.49 731.157 146.495C728.834 145.389 726.179 144.836 723.193 144.836C720.538 144.836 717.994 145.278 715.561 146.163C713.238 147.048 711.081 148.486 709.09 150.477C707.099 152.357 705.384 154.735 703.946 157.611C702.619 160.487 701.679 163.916 701.126 167.898Z" fill="#FCFCFC"/>
<path d="M783.753 137.535H796.197L795.7 159.602L794.206 157.114C794.87 153.685 796.031 150.643 797.691 147.988C799.35 145.333 801.341 143.121 803.664 141.351C805.987 139.471 808.531 138.088 811.296 137.203C814.061 136.208 816.937 135.71 819.924 135.71C823.906 135.71 827.556 136.429 830.874 137.867C834.303 139.194 837.345 141.241 840 144.006L834.691 153.298L834.027 154.791L832.865 154.127C832.644 153.242 832.312 152.413 831.87 151.638C831.427 150.864 830.487 149.924 829.049 148.818C827.279 147.712 825.62 146.993 824.072 146.661C822.634 146.218 820.975 145.997 819.094 145.997C816.329 145.997 813.564 146.55 810.798 147.656C808.033 148.652 805.489 150.256 803.166 152.468C800.954 154.68 799.184 157.501 797.856 160.93C796.529 164.359 795.865 168.451 795.865 173.208V213.526H783.753V137.535Z" fill="#FCFCFC"/>
<path d="M385.493 114.634H346.422L270.922 243.374L290.733 278.867L385.493 114.634Z" fill="#F5DD82"/>
<path d="M64.3947 114.634H103.466L178.965 243.374L159.155 278.867L64.3947 114.634Z" fill="#F5DD82"/>
<path fill-rule="evenodd" clip-rule="evenodd" d="M308.466 86.4996C308.466 99.108 305.672 111.064 300.67 121.782L300.673 121.783L300.655 121.815C298.773 125.843 296.579 129.696 294.104 133.343L244.086 221.37L290.734 303.459L405.206 103.068H325.563V70.0401H433.566C442.568 70.0401 449.865 77.3372 449.865 86.3386V87.3922C449.865 90.2304 449.123 93.0194 447.715 95.4832L304.722 345.531C301.893 350.478 296.631 353.531 290.932 353.531C285.249 353.531 279.998 350.494 277.163 345.567L224.932 254.779L172.701 345.567C169.867 350.494 164.616 353.531 158.932 353.531C153.233 353.531 147.971 350.478 145.142 345.531L2.15008 95.4832C0.74114 93.0194 0 90.2304 0 87.3922V86.3386C0 77.3372 7.29709 70.0401 16.2985 70.0401H124.302V103.068H44.6587L159.131 303.459L205.778 221.37H205.785L155.8 133.392C146.715 120.023 141.405 103.881 141.405 86.4996C141.405 40.3672 178.803 2.96954 224.935 2.96954C271.068 2.96954 308.466 40.3672 308.466 86.4996ZM224.935 187.958L213.258 167.658L182.779 114.448C177.24 106.362 174.003 96.5995 174.003 86.0867C174.003 58.1853 196.806 35.5666 224.935 35.5666C253.065 35.5666 275.868 58.1853 275.868 86.0867C275.868 93.7124 274.165 100.943 271.115 107.426L271.117 107.427L271.106 107.446C269.958 109.882 268.621 112.213 267.112 114.418L236.613 167.658L224.935 187.958Z" fill="#F4CB29"/>
</svg>
