<svg width="840" height="45" viewBox="0 0 840 45" fill="none" xmlns="http://www.w3.org/2000/svg">
<path d="M74.94 43.2809C69.82 43.2809 66.14 42.1609 63.9 39.9209C61.7 37.6809 60.6 34.4409 60.6 30.2009V1.28091H69.06V30.2009C69.06 32.4009 69.54 34.0409 70.5 35.1209C71.46 36.1609 72.94 36.6809 74.94 36.6809H88.38V43.2809H74.94Z" fill="#F4CB29"/>
<path d="M129.291 44.0609C123.811 44.0609 119.671 42.9009 116.871 40.5809C114.071 38.2209 112.671 34.9609 112.671 30.8009V1.28091H121.131V30.8009C121.131 35.2409 123.851 37.4609 129.291 37.4609C134.731 37.4609 137.451 35.2409 137.451 30.8009V1.28091H145.911V30.8009C145.911 34.9609 144.511 38.2209 141.711 40.5809C138.911 42.9009 134.771 44.0609 129.291 44.0609Z" fill="#F4CB29"/>
<path d="M192.161 22.8209L204.881 43.2809H195.281L186.701 29.4209L178.121 43.2809H168.701L182.021 21.8609L169.301 1.28091H178.841L187.481 15.2609L196.121 1.28091H205.481L192.161 22.8209Z" fill="#F4CB29"/>
<path d="M244.918 44.0609C239.438 44.0609 235.298 42.9009 232.498 40.5809C229.698 38.2209 228.298 34.9609 228.298 30.8009V1.28091H236.758V30.8009C236.758 35.2409 239.478 37.4609 244.918 37.4609C250.358 37.4609 253.078 35.2409 253.078 30.8009V1.28091H261.538V30.8009C261.538 34.9609 260.138 38.2209 257.338 40.5809C254.538 42.9009 250.398 44.0609 244.918 44.0609Z" fill="#F4CB29"/>
<path d="M323.447 43.2809H314.507L311.747 33.9809C311.187 32.0609 310.627 30.5809 310.067 29.5409C309.507 28.4609 308.747 27.6409 307.787 27.0809C306.827 26.5209 305.547 26.2409 303.947 26.2409H297.887V43.2809H289.427V1.28091H306.407C311.527 1.28091 315.307 2.30091 317.747 4.34091C320.187 6.34091 321.407 9.48091 321.407 13.7609C321.407 16.5209 320.667 18.7409 319.187 20.4209C317.747 22.1009 315.747 23.1809 313.187 23.6609C315.227 24.3409 316.767 25.5209 317.807 27.2009C318.847 28.8809 319.807 31.1609 320.687 34.0409L323.447 43.2809ZM306.647 19.6409C308.487 19.6409 309.987 19.1609 311.147 18.2009C312.347 17.2009 312.947 15.7209 312.947 13.7609C312.947 11.8009 312.347 10.3409 311.147 9.38091C309.987 8.38091 308.487 7.88091 306.647 7.88091H297.887V19.6409H306.647Z" fill="#F4CB29"/>
<path d="M357.64 25.2809L343.84 1.28091H353.26L362.08 17.5409L370.72 1.28091H380.2L366.1 25.2809V43.2809H357.64V25.2809Z" fill="#F4CB29"/>
<path d="M453.743 44.0009C450.863 44.0009 448.443 43.6809 446.483 43.0409C444.563 42.4009 442.943 41.5209 441.623 40.4009C440.303 39.2809 438.943 37.7809 437.543 35.9009L443.243 31.1609C444.883 33.4409 446.463 35.0609 447.983 36.0209C449.543 36.9409 451.463 37.4009 453.743 37.4009C456.903 37.4009 459.203 36.9409 460.643 36.0209C462.083 35.1009 462.803 33.6209 462.803 31.5809C462.803 30.5409 462.463 29.7009 461.783 29.0609C461.103 28.3809 459.923 27.7609 458.243 27.2009C456.603 26.6409 454.143 26.0209 450.863 25.3409C447.023 24.5409 444.163 23.1209 442.283 21.0809C440.443 19.0009 439.523 16.2409 439.523 12.8009C439.523 10.3209 440.143 8.16091 441.383 6.32091C442.663 4.48091 444.463 3.06091 446.783 2.06091C449.103 1.06091 451.803 0.560913 454.883 0.560913C458.883 0.560913 462.063 1.16091 464.423 2.36091C466.783 3.52091 468.703 5.24091 470.183 7.52091L464.603 12.0809C463.363 10.8409 462.323 9.90091 461.483 9.26091C460.683 8.58091 459.763 8.06091 458.723 7.70091C457.683 7.34091 456.403 7.16091 454.883 7.16091C452.603 7.16091 450.883 7.66091 449.723 8.66091C448.563 9.66091 447.983 11.1009 447.983 12.9809C447.983 14.7409 448.723 16.0409 450.203 16.8809C451.683 17.6809 453.583 18.3409 455.903 18.8609C459.343 19.5809 462.083 20.3209 464.123 21.0809C466.163 21.8409 467.863 23.0609 469.223 24.7409C470.583 26.4209 471.263 28.7209 471.263 31.6409C471.263 35.8009 469.803 38.9009 466.883 40.9409C464.003 42.9809 459.623 44.0009 453.743 44.0009Z" fill="#F4CB29"/>
<path d="M497.77 1.28091H506.23V18.9209H522.55V1.28091H531.01V43.2809H522.55V25.5209H506.23V43.2809H497.77V1.28091Z" fill="#F4CB29"/>
<path d="M575.508 44.0609C570.028 44.0609 565.888 42.9009 563.088 40.5809C560.288 38.2209 558.888 34.9609 558.888 30.8009V1.28091H567.348V30.8009C567.348 35.2409 570.068 37.4609 575.508 37.4609C580.948 37.4609 583.668 35.2409 583.668 30.8009V1.28091H592.128V30.8009C592.128 34.9609 590.728 38.2209 587.928 40.5809C585.128 42.9009 580.988 44.0609 575.508 44.0609Z" fill="#F4CB29"/>
<path d="M628.778 7.88091H616.118V1.28091H649.898V7.88091H637.238V43.2809H628.778V7.88091Z" fill="#F4CB29"/>
<path d="M684.13 7.88091H671.47V1.28091H705.25V7.88091H692.59V43.2809H684.13V7.88091Z" fill="#F4CB29"/>
<path d="M743.563 43.2809C738.443 43.2809 734.763 42.1609 732.523 39.9209C730.323 37.6809 729.223 34.4409 729.223 30.2009V1.28091H737.683V30.2009C737.683 32.4009 738.163 34.0409 739.123 35.1209C740.083 36.1609 741.563 36.6809 743.563 36.6809H757.003V43.2809H743.563Z" fill="#F4CB29"/>
<path d="M795.228 43.2809C789.908 43.2809 786.088 42.1609 783.768 39.9209C781.448 37.6809 780.288 34.4409 780.288 30.2009V14.3609C780.288 10.1209 781.448 6.88091 783.768 4.64091C786.088 2.40091 789.908 1.28091 795.228 1.28091H809.268V7.88091H795.228C793.028 7.88091 791.388 8.40091 790.308 9.44091C789.268 10.4809 788.748 12.1209 788.748 14.3609V18.9809H806.628V25.5809H788.748V30.2009C788.748 32.4009 789.268 34.0409 790.308 35.1209C791.388 36.1609 793.028 36.6809 795.228 36.6809H809.388V43.2809H795.228Z" fill="#F4CB29"/>
</svg>
