<svg width="450" height="351" viewBox="0 0 450 351" fill="none" xmlns="http://www.w3.org/2000/svg">
<path d="M385.493 111.664H346.422L270.922 240.405L290.733 275.898L385.493 111.664Z" fill="#F5DD82"/>
<path d="M64.3947 111.664H103.466L178.965 240.405L159.155 275.898L64.3947 111.664Z" fill="#F5DD82"/>
<path fill-rule="evenodd" clip-rule="evenodd" d="M308.466 83.5301C308.466 96.1384 305.672 108.094 300.67 118.813L300.673 118.814L300.655 118.846C298.773 122.874 296.579 126.727 294.104 130.374L244.086 218.401L290.734 300.49L405.206 100.098H325.563V67.0705H433.566C442.568 67.0705 449.865 74.3677 449.865 83.3691V84.4227C449.865 87.2609 449.123 90.0499 447.715 92.5136L304.722 342.562C301.893 347.509 296.631 350.561 290.932 350.561C285.249 350.561 279.998 347.524 277.163 342.597L224.932 251.809L172.701 342.597C169.867 347.524 164.616 350.561 158.932 350.561C153.233 350.561 147.971 347.509 145.142 342.562L2.15008 92.5136C0.74114 90.0499 0 87.2609 0 84.4227V83.3691C0 74.3677 7.29709 67.0705 16.2985 67.0705H124.302V100.098H44.6587L159.131 300.49L205.778 218.401H205.785L155.8 130.422C146.715 117.054 141.405 100.912 141.405 83.5301C141.405 37.3977 178.803 0 224.935 0C271.068 0 308.466 37.3977 308.466 83.5301ZM224.935 184.989L213.258 164.689L182.779 111.478C177.24 103.393 174.003 93.6299 174.003 83.1172C174.003 55.2157 196.806 32.5971 224.935 32.5971C253.065 32.5971 275.868 55.2157 275.868 83.1172C275.868 90.7429 274.165 97.9739 271.115 104.456L271.117 104.457L271.106 104.476C269.958 106.913 268.621 109.243 267.112 111.449L236.613 164.689L224.935 184.989Z" fill="#F4CB29"/>
</svg>
