<svg width="121" height="120" viewBox="0 0 121 120" fill="none" xmlns="http://www.w3.org/2000/svg">
<path fill-rule="evenodd" clip-rule="evenodd" d="M60.4109 0C27.2738 0 0.410889 26.8629 0.410889 60C0.410889 93.1371 27.2738 120 60.4109 120C93.548 120 120.411 93.1371 120.411 60C120.411 26.8629 93.548 0 60.4109 0ZM91.3596 36.4954C93.762 38.7777 93.8594 42.5754 91.5771 44.9778L55.2214 83.247L55.1833 83.2871C52.901 85.6895 49.1032 85.7869 46.7008 83.5046C46.6519 83.4581 46.6039 83.411 46.5569 83.3633L29.3517 66.1581C27.0086 63.815 27.0086 60.016 29.3517 57.6728C31.6949 55.3297 35.4939 55.3297 37.837 57.6728L50.7232 70.559L82.8771 36.7129C85.1594 34.3104 88.9571 34.213 91.3596 36.4954Z" fill="#00ADBF"/>
</svg>
