<svg width="72" height="72" viewBox="0 0 72 72" fill="none" xmlns="http://www.w3.org/2000/svg">
<path fill-rule="evenodd" clip-rule="evenodd" d="M69 36C69 26.7403 67.786 16.6937 63.255 11.5583C58.5261 6.20178 48.3369 3 36.0031 3H35.9998C23.6646 3 13.475 6.19849 8.74466 11.5583C4.21366 16.6937 3 26.6423 3 36C3 45.3577 4.21366 55.3066 8.74503 60.4417C13.4754 65.8015 23.665 69 36.0002 69H36.0035C48.3372 69 58.5265 65.7982 63.2553 60.4417C67.7863 55.3063 69 45.2597 69 36ZM38.5001 16.5084C37.76 16.0139 36.89 15.75 36 15.75C34.8065 15.75 33.6619 16.2241 32.818 17.068C31.9741 17.9119 31.5 19.0565 31.5 20.25C31.5 21.14 31.7639 22.01 32.2584 22.7501C32.7529 23.4901 33.4557 24.0669 34.2779 24.4075C35.1002 24.7481 36.005 24.8372 36.8779 24.6635C37.7508 24.4899 38.5526 24.0613 39.182 23.432C39.8113 22.8026 40.2399 22.0008 40.4135 21.1279C40.5872 20.255 40.4981 19.3502 40.1575 18.5279C39.8169 17.7057 39.2401 17.0029 38.5001 16.5084ZM29.3787 55.3713C29.9413 55.9339 30.7044 56.25 31.5 56.25H40.5C41.2957 56.25 42.0587 55.9339 42.6213 55.3713C43.1839 54.8087 43.5 54.0457 43.5 53.25C43.5 52.4543 43.1839 51.6913 42.6213 51.1287C42.0587 50.5661 41.2957 50.25 40.5 50.25H39V32.25C39 31.4544 38.6839 30.6913 38.1213 30.1287C37.5587 29.5661 36.7957 29.25 36 29.25H34.5C33.8396 29.25 33.1977 29.468 32.6738 29.87C32.1499 30.272 31.7733 30.8357 31.6024 31.4735C31.4314 32.1114 31.4758 32.7879 31.7285 33.398C31.9812 34.0081 32.4281 34.5178 33 34.848V50.25H31.5C30.7044 50.25 29.9413 50.5661 29.3787 51.1287C28.8161 51.6913 28.5 52.4543 28.5 53.25C28.5 54.0457 28.8161 54.8087 29.3787 55.3713Z" fill="#8D8D8D"/>
</svg>
