<svg width="72" height="72" viewBox="0 0 72 72" fill="none" xmlns="http://www.w3.org/2000/svg">
<path fill-rule="evenodd" clip-rule="evenodd" d="M24.0388 12C24.0388 10.3433 25.382 9.00005 27.0388 9.00005C28.6957 9.00005 30.0388 10.3433 30.0388 12V13.5H50.9855V12C50.9855 10.3433 52.3286 9.00005 53.9855 9.00005C55.6423 9.00005 56.9855 10.3433 56.9855 12V13.5H59.995C63.3037 13.5 65.8387 16.1243 65.9918 19.1954H65.9991V56.9999C65.9991 60.3136 63.3128 62.9999 59.9991 62.9999H20.9991C17.6854 62.9999 14.9991 60.3136 14.9991 56.9999V52.5H12.005C7.96763 52.5 5.08254 48.5929 6.27072 44.7342L14.5849 17.7342C15.3599 15.2172 17.6857 13.5 20.3192 13.5H24.0388V12ZM18.2709 25.5L11.7638 44.8261C11.4365 45.7984 12.1596 46.8047 13.1854 46.8047H50.0107C50.6548 46.8047 51.227 46.3935 51.4324 45.783L58.2564 25.5H18.2709ZM51.6873 52.5H20.9888V56.9999H59.9888V39.9224L57.422 48.2645C56.6473 50.7822 54.3213 52.5 51.6873 52.5Z" fill="#00ADBF"/>
</svg>
