<svg width="72" height="72" viewBox="0 0 72 72" fill="none" xmlns="http://www.w3.org/2000/svg">
<path fill-rule="evenodd" clip-rule="evenodd" d="M36 31.7574L20.0901 15.8475C19.6147 15.3721 19.0195 15.0896 18.4017 15L17.5358 15C16.918 15.0896 16.3228 15.3721 15.8475 15.8475C15.3721 16.3228 15.0896 16.918 15 17.5358L15 18.4017C15.0896 19.0195 15.3721 19.6147 15.8475 20.0901L31.7574 36L15.8475 51.9099C15.3721 52.3853 15.0896 52.9805 15 53.5983L15 54.4642C15.0896 55.082 15.3721 55.6772 15.8475 56.1525C16.3228 56.6279 16.918 56.9104 17.5358 57H18.4017C19.0195 56.9104 19.6147 56.6279 20.0901 56.1525L36 40.2426L51.9099 56.1525C52.3853 56.6279 52.9805 56.9104 53.5983 57H54.4642C55.082 56.9104 55.6772 56.6279 56.1525 56.1525C56.6279 55.6772 56.9104 55.082 57 54.4642V53.5982C56.9104 52.9805 56.6279 52.3853 56.1525 51.9099L40.2426 36L56.1525 20.0901C56.6279 19.6147 56.9104 19.0195 57 18.4017V17.5358C56.9104 16.918 56.6279 16.3228 56.1525 15.8475C55.6772 15.3721 55.082 15.0896 54.4642 15L53.5983 15C52.9805 15.0896 52.3853 15.3721 51.9099 15.8475L36 31.7574Z" fill="#323232"/>
</svg>
