<svg width="73" height="73" viewBox="0 0 73 73" fill="none" xmlns="http://www.w3.org/2000/svg">
<path d="M25.3113 46.2347C15.7311 48.7455 9.70042 54.8144 7.74722 63.3472C7.1775 65.7894 8.05987 66.5041 9.15415 66.8385C11.5373 67.5758 14.5821 68.1412 17.7755 68.5989C21.0949 61.6459 28.1651 57.036 36.0822 57.036C38.6016 57.036 41.0308 57.5154 43.2879 58.3804L53.7913 49.0173C51.7374 47.8501 49.4307 46.9087 46.8574 46.2347L36.955 51.595C36.453 52.0145 35.72 52.0145 35.2137 51.595L25.3113 46.2347Z" fill="#8D8D8D"/>
<path d="M58.2231 52.2816L48.2947 61.1375C50.8628 63.0742 52.9662 65.6249 54.3914 68.5977C57.5857 68.14 60.6305 67.5703 63.0136 66.8373C64.1079 66.5029 64.9894 65.7882 64.4197 63.346C63.4123 58.9541 61.3175 55.2214 58.2231 52.2816Z" fill="#8D8D8D"/>
<path d="M30.9825 62.3144C27.4183 63.4869 24.4073 65.9473 22.4758 69.1763C26.7947 69.6244 30.979 69.8676 33.9831 69.9457V64.3909C33.9822 62.7634 32.4303 61.835 30.9825 62.3144Z" fill="#8D8D8D"/>
<path d="M41.1793 62.3144C44.74 63.4869 47.7519 65.9473 49.6878 69.1763C45.3671 69.6244 41.1845 69.8676 38.1804 69.9457V64.3909C38.1804 62.7634 39.7324 61.835 41.1793 62.3144Z" fill="#8D8D8D"/>
<path fill-rule="evenodd" clip-rule="evenodd" d="M36.1134 18.8818C40.1345 18.8818 48.1002 20.2888 48.1002 20.2888C48.6838 21.4777 49.2943 22.6545 49.8319 23.8669C50.6561 25.7254 51.0582 27.7394 51.0669 29.7699C51.0669 38.0205 44.3735 44.7147 36.1221 44.7147H36.1082C27.8525 44.7147 21.1626 38.0205 21.1626 29.7699C21.1669 27.7394 21.5743 25.7254 22.3924 23.8669C22.9317 22.6545 23.5474 21.4786 24.1258 20.2888C24.1258 20.2888 32.0915 18.8818 36.1134 18.8818Z" fill="#8D8D8D"/>
<path d="M36.1134 3.9458C28.9068 3.9458 6.9473 10.2284 22.9594 17.9274C22.9594 17.9274 31.7015 16.6699 36.109 16.4215C36.1134 16.4215 36.1134 16.4215 36.1134 16.4215C36.1177 16.4171 36.1134 16.4119 36.1134 16.4067V16.4032L36.1169 16.4067C36.1169 16.4111 36.1125 16.4163 36.1169 16.4215C40.5227 16.6699 49.2717 17.9274 49.2717 17.9274C65.2847 10.2292 43.3235 3.9458 36.1134 3.9458Z" fill="#8D8D8D"/>
</svg>
