<svg width="72" height="72" viewBox="0 0 72 72" fill="none" xmlns="http://www.w3.org/2000/svg">
<path fill-rule="evenodd" clip-rule="evenodd" d="M12.122 15.3039C11.2563 14.4242 11.2606 13.0093 12.1349 12.135C13.0136 11.2563 14.4382 11.2563 15.3169 12.135L21.8065 18.6246C25.736 16.4656 30.4487 14.9982 35.9998 14.9982C51.6449 14.9982 60.6296 26.6538 64.1945 32.5981C65.4613 34.7104 65.4613 37.2859 64.1945 39.3982C62.3395 42.4914 59.0169 47.131 54.0521 50.8701L59.8646 56.6827C60.7433 57.5614 60.7433 58.986 59.8646 59.8647C58.9903 60.739 57.5753 60.7433 56.6956 59.8776L12.122 15.3039ZM13.467 25.1342C10.9032 27.8267 9.03283 30.551 7.80519 32.5981C6.53839 34.7104 6.5384 37.2859 7.80519 39.3982C11.37 45.3425 20.3548 56.9982 35.9998 56.9982C38.9672 56.9982 41.695 56.5789 44.1916 55.8588L40.449 52.1162C39.0457 52.3627 37.5632 52.4982 35.9998 52.4982C21.5823 52.4982 14.05 40.9739 11.9643 37.1877C11.5517 36.4386 11.5517 35.5577 11.9643 34.8087C12.7438 33.3937 14.2839 30.898 16.6598 28.327L13.467 25.1342ZM25.1311 21.9492L29.2542 26.0722C31.1765 24.7633 33.4988 23.9982 35.9998 23.9982C42.6272 23.9982 47.9998 29.3708 47.9998 35.9982C47.9998 38.4992 47.2347 40.8215 45.9258 42.7438L50.8504 47.6684C55.871 44.045 58.8431 39.3521 60.0354 37.1877C60.448 36.4386 60.448 35.5577 60.0354 34.8087C57.9497 31.0224 50.4174 19.4982 35.9998 19.4982C31.8062 19.4982 28.1951 20.4732 25.1311 21.9492ZM32.5295 29.3476L42.6504 39.4684C43.193 38.4307 43.4998 37.2503 43.4998 35.9982C43.4998 31.856 40.1419 28.4982 35.9998 28.4982C34.7477 28.4982 33.5672 28.805 32.5295 29.3476Z" fill="#323232"/>
</svg>
