<svg width="72" height="72" viewBox="0 0 72 72" fill="none" xmlns="http://www.w3.org/2000/svg">
<path fill-rule="evenodd" clip-rule="evenodd" d="M35.9998 15C20.3547 15 11.37 26.6556 7.80519 32.5999C6.53839 34.7123 6.5384 37.2877 7.80519 39.4001C11.37 45.3444 20.3548 57 35.9998 57C51.6449 57 60.6296 45.3444 64.1945 39.4001C65.4613 37.2877 65.4613 34.7123 64.1945 32.5999C60.6296 26.6556 51.6449 15 35.9998 15ZM35.9998 19.5C21.5823 19.5 14.05 31.0242 11.9643 34.8105C11.5517 35.5596 11.5517 36.4404 11.9643 37.1895C14.05 40.9758 21.5823 52.5 35.9998 52.5C50.4174 52.5 57.9497 40.9758 60.0354 37.1895C60.448 36.4404 60.448 35.5596 60.0354 34.8105C57.9497 31.0242 50.4174 19.5 35.9998 19.5ZM35.9998 24C42.6272 24 47.9998 29.3726 47.9998 36C47.9998 42.6274 42.6272 48 35.9998 48C29.3724 48 23.9998 42.6274 23.9998 36C23.9998 29.3726 29.3724 24 35.9998 24ZM35.9998 28.5C40.1419 28.5 43.4998 31.8579 43.4998 36C43.4998 40.1421 40.1419 43.5 35.9998 43.5C31.8577 43.5 28.4998 40.1421 28.4998 36C28.4998 31.8579 31.8577 28.5 35.9998 28.5Z" fill="#323232"/>
</svg>
