<svg width="72" height="72" viewBox="0 0 72 72" fill="none" xmlns="http://www.w3.org/2000/svg">
<path fill-rule="evenodd" clip-rule="evenodd" d="M3 36C3 17.8043 17.8029 3 36 3C54.1971 3 69 17.8043 69 36C68.9982 43.8733 66.2172 51.4672 61.1931 57.3178L63.0789 59.2953C63.8369 60.0905 64.353 61.1037 64.562 62.2065C64.7709 63.3094 64.6634 64.4525 64.2529 65.4912C63.8424 66.53 63.1474 67.4178 62.2558 68.0423C61.3642 68.6669 60.316 69.0002 59.2438 69H36C17.8029 69 3 54.1957 3 36ZM26.1427 32.1619C27.7488 32.1619 29.0602 30.8506 29.0602 29.2297C29.0602 27.3142 29.8411 25.5755 31.0936 24.323C32.346 23.0706 34.0847 22.2896 36.0002 22.2896C37.9158 22.2896 39.6545 23.0706 40.9069 24.323C42.1594 25.5755 42.9403 27.3142 42.9403 29.2297C42.9403 31.1452 42.1594 32.8839 40.9069 34.1364C39.6545 35.3889 37.9158 36.1698 36.0002 36.1698C34.3794 36.1698 33.068 37.4812 33.068 39.0873V42.9478C33.068 44.5686 34.3794 45.88 36.0002 45.88C37.6211 45.88 38.9325 44.5686 38.9325 42.9478V41.6806C41.29 41.1354 43.3971 39.9272 45.0474 38.2769C47.3607 35.9635 48.79 32.7661 48.79 29.2297C48.79 25.6934 47.3607 22.4959 45.0474 20.1826C42.734 17.8692 39.5366 16.4399 36.0002 16.4399C32.4639 16.4399 29.2664 17.8692 26.9531 20.1826C24.6397 22.4959 23.2104 25.6934 23.2104 29.2297C23.2104 30.8506 24.5218 32.1619 26.1427 32.1619ZM32.7733 52.6433C32.7733 54.2641 34.0847 55.5608 35.7055 55.5608H36.3539C37.9747 55.5608 39.2861 54.2641 39.2861 52.6433C39.2861 51.0225 37.9747 49.7111 36.3539 49.7111H35.7055C34.0847 49.7111 32.7733 51.0225 32.7733 52.6433Z" fill="#8D8D8D"/>
</svg>
