<svg width="72" height="72" viewBox="0 0 72 72" fill="none" xmlns="http://www.w3.org/2000/svg">
<path d="M36 6C30.0666 6 24.2664 7.75947 19.3329 11.0559C14.3994 14.3524 10.5543 19.0377 8.28363 24.5195C6.013 30.0013 5.4189 36.0333 6.57645 41.8527C7.73401 47.6721 10.5912 53.0176 14.7868 57.2132C18.9824 61.4088 24.3279 64.266 30.1473 65.4235C35.9667 66.5811 41.9987 65.987 47.4805 63.7164C52.9623 61.4457 57.6476 57.6006 60.9441 52.6671C64.2405 47.7336 66 41.9334 66 36C66 32.0603 65.224 28.1593 63.7164 24.5195C62.2087 20.8797 59.999 17.5726 57.2132 14.7868C54.4274 12.001 51.1203 9.79125 47.4805 8.28361C43.8407 6.77597 39.9397 6 36 6ZM56.76 24H48.105C47.5446 20.4858 46.5364 17.058 45.105 13.8C50.0039 15.8292 54.0993 19.4134 56.76 24ZM60 36C59.9965 38.026 59.7293 40.043 59.205 42H48.87C49.035 40.02 49.125 38.01 49.125 36C49.125 33.99 49.035 31.98 48.87 30H59.205C59.7293 31.957 59.9965 33.974 60 36ZM36 60C34.26 60 31.5 55.62 30 48H42C40.5 55.62 37.74 60 36 60ZM29.145 42C28.98 40.125 28.875 38.13 28.875 36C28.875 33.87 28.98 31.875 29.145 30H42.855C43.02 31.875 43.125 33.87 43.125 36C43.125 38.13 43.02 40.125 42.855 42H29.145ZM12 36C12.0035 33.974 12.2707 31.957 12.795 30H23.13C22.965 31.98 22.875 33.99 22.875 36C22.875 38.01 22.965 40.02 23.13 42H12.795C12.2707 40.043 12.0035 38.026 12 36ZM36 12C37.74 12 40.5 16.38 42 24H30C31.5 16.38 34.26 12 36 12ZM26.895 13.8C25.4636 17.058 24.4554 20.4858 23.895 24H15.24C17.9007 19.4134 21.9961 15.8292 26.895 13.8ZM15.24 48H23.895C24.4554 51.5141 25.4636 54.942 26.895 58.2C21.9961 56.1708 17.9007 52.5866 15.24 48ZM45.105 58.2C46.5364 54.942 47.5446 51.5141 48.105 48H56.76C54.0993 52.5866 50.0039 56.1708 45.105 58.2Z" fill="#00ADBF"/>
</svg>
