<svg width="72" height="73" viewBox="0 0 72 73" fill="none" xmlns="http://www.w3.org/2000/svg">
<path fill-rule="evenodd" clip-rule="evenodd" d="M35.9231 61.0337V12.1037H17.5897V18.8497C17.5897 20.5065 16.2466 21.8497 14.5897 21.8497C12.9329 21.8497 11.5897 20.5065 11.5897 18.8497V12.1037V12.0993C11.5897 8.7856 14.276 6.09932 17.5897 6.09932H35.9231V6.07997L37.105 6.08007C37.4348 5.62302 37.82 5.21491 38.2542 4.85904C39.7332 3.70983 41.6595 3.29846 43.478 3.74575L64.3732 8.96954C67.0961 9.64211 69.0093 12.0874 69.0061 14.8887V36.6377V58.3867C69.0093 61.1911 67.0961 63.6333 64.3732 64.3058L43.478 69.5296C42.9916 69.5819 42.5018 69.5819 42.0154 69.5296C40.6572 69.523 39.3349 69.0693 38.2542 68.2432C37.825 67.8915 37.4436 67.4887 37.1164 67.038H17.5897C14.276 67.038 11.5897 64.3517 11.5897 61.038V61.0339V61.0337V54.2839C11.5897 52.627 12.9329 51.2839 14.5897 51.2839C16.2466 51.2839 17.5897 52.627 17.5897 54.2839V61.0337H35.9231ZM3.76029 38.3957C3.52196 38.1541 3.33259 37.8733 3.202 37.5599C2.92449 36.9167 2.92455 36.1854 3.20206 35.5422C3.33266 35.2288 3.52202 34.948 3.76036 34.7064V34.7031L10.7243 27.7392C11.7527 26.7825 13.3557 26.8087 14.3515 27.8045C15.3473 28.8003 15.3734 30.4032 14.4168 31.4317L11.9094 33.9391H29.9837C31.4236 33.9391 32.5956 35.1079 32.5956 36.551C32.5956 37.9941 31.4236 39.1629 29.9837 39.1629H11.9094L14.4168 41.6703C15.4355 42.689 15.4355 44.341 14.4168 45.3629C13.3949 46.3816 11.7429 46.3816 10.7242 45.3629V45.3597L3.76029 38.3957Z" fill="#8D8D8D"/>
</svg>
