<svg width="72" height="72" viewBox="0 0 72 72" fill="none" xmlns="http://www.w3.org/2000/svg">
<path fill-rule="evenodd" clip-rule="evenodd" d="M42.4492 27.0486C42.4492 18.7459 35.6113 12 27.1955 12C18.7797 12 11.9418 18.7459 11.9418 27.0486C11.9418 32.4973 15.0977 37.6865 19.8316 40.2811C16.4127 41.0595 13.2568 42.6162 10.6268 44.6919C6.41893 47.8054 3.52599 52.2162 3 58.4432C3 59.2216 3.52599 60 4.31497 60H50.076C50.865 60 51.391 59.2216 51.391 58.1838C50.602 52.2162 47.7091 47.8054 43.7641 44.6919C41.1342 42.6162 37.9783 41.0595 34.5593 40.2811C39.2932 37.6865 42.4492 32.4973 42.4492 27.0486ZM48.4491 27.0486C48.4491 22.6995 47.1208 18.6736 44.8527 15.3322C45.8137 15.1148 46.814 15 47.8411 15C55.205 15 61.1881 20.9027 61.1881 28.1676C61.1881 32.9351 58.4267 37.4757 54.2845 39.7459C57.276 40.427 60.0375 41.7892 62.3387 43.6054C65.7905 46.3297 68.3218 50.1892 69.0122 55.4108C69.0122 56.3189 68.5519 57 67.8616 57H57.2839C56.1978 49.5613 52.4658 43.9161 47.4813 39.9821C46.729 39.3883 45.9426 38.8283 45.1256 38.3057C47.236 34.9887 48.4491 31.089 48.4491 27.0486Z" fill="#8D8D8D"/>
</svg>
