<svg width="72" height="72" viewBox="0 0 72 72" fill="none" xmlns="http://www.w3.org/2000/svg">
<path d="M31.6751 12.5413C31.6751 16.1479 28.7546 19.0739 25.1425 19.0739C21.5294 19.0739 18.598 16.1468 18.598 12.5413C18.598 8.92927 21.5305 6 25.1425 6C28.7546 6 31.6751 8.92927 31.6751 12.5413Z" fill="#00ADBF"/>
<path d="M48.9448 43.9596L57.5736 59.6176C59.011 61.1334 58.9457 63.5258 57.432 64.9622C56.6523 65.7016 55.6407 66.0435 54.6465 65.9956C53.7078 65.9499 52.7855 65.5578 52.0885 64.8217L44.4289 51.7739L31.6697 51.1532C29.8631 51.0661 28.7535 50.061 27.6624 48.7499C27.584 48.6563 27.5241 48.5659 27.4751 48.4766C26.6594 47.0239 25.871 41.9549 25.565 39.8064L22.8939 27.277C22.3875 24.8976 23.8652 22.552 26.1923 21.9346C26.2223 21.9223 26.2538 21.9131 26.2853 21.904C26.3096 21.8969 26.334 21.8898 26.3578 21.8812C26.366 21.8796 26.3733 21.8769 26.3807 21.8741C26.388 21.8714 26.3954 21.8687 26.4035 21.8671L26.4199 21.8638C26.6257 21.793 26.8326 21.7222 27.0471 21.6798C27.6515 21.56 28.2471 21.5709 28.8177 21.6721C28.956 21.6939 29.09 21.7266 29.225 21.7614C29.3284 21.7887 29.4297 21.8181 29.531 21.8518C29.6965 21.9063 29.8566 21.9662 30.0145 22.0391C30.0276 22.045 30.0412 22.0497 30.0547 22.0544C30.0715 22.0603 30.0881 22.0661 30.1038 22.074C30.1005 22.0598 30.1517 22.0947 30.1517 22.0947C30.2062 22.1209 30.2574 22.1525 30.3086 22.1842C30.3402 22.2038 30.3719 22.2234 30.4043 22.2417C30.4289 22.2557 30.4537 22.2694 30.4784 22.283C30.538 22.3159 30.5975 22.3488 30.6537 22.3865C30.8726 22.5291 31.0838 22.6849 31.2788 22.8613L31.2864 22.8896C31.918 23.4983 32.3819 24.2943 32.5779 25.2123L34.3768 33.6495L34.5336 34.195C34.5549 34.3012 34.5758 34.4077 34.5968 34.5141C34.6177 34.6205 34.6387 34.727 34.6599 34.8332L36.1289 41.1414C36.4259 41.1008 36.738 41.1391 37.0427 41.1766C37.138 41.1883 37.2325 41.1999 37.3257 41.209L45.2271 41.9701C46.7701 42.0464 48.0986 42.8162 48.9448 43.9596Z" fill="#00ADBF"/>
<path d="M26.4392 60.1816H42.7892C43.6392 60.1816 44.3517 59.8941 44.9267 59.3191C45.5017 58.7441 45.7892 58.0316 45.7892 57.1816C45.7892 56.3316 45.5017 55.6191 44.9267 55.0441C44.3517 54.4691 43.6392 54.1816 42.7892 54.1816H25.5392L19.3892 23.5816C19.2392 22.8816 18.8892 22.3066 18.3392 21.8566C17.7892 21.4066 17.1642 21.1816 16.4642 21.1816C15.4642 21.1816 14.6642 21.5441 14.0642 22.2691C13.4642 22.9941 13.2642 23.8316 13.4642 24.7816L19.3142 54.1816C19.6642 55.8316 20.5267 57.2441 21.9017 58.4191C23.2767 59.5941 24.7892 60.1816 26.4392 60.1816Z" fill="#00ADBF"/>
</svg>
