<svg width="72" height="72" viewBox="0 0 72 72" fill="none" xmlns="http://www.w3.org/2000/svg">
<path d="M58.0349 10.5009L40.4594 3.83077C37.5739 2.72308 34.4261 2.72308 31.5406 3.83077L13.9651 10.5009C9.19561 12.3158 6 16.9117 6 21.9556V33.2218C6 49.2017 15.5151 61.9762 32.089 68.293C33.353 68.7642 34.6884 69 36 69C37.3116 69 38.647 68.7642 39.911 68.293C56.4849 61.9762 66 49.2017 66 33.2218V21.9556C66 16.9117 62.8044 12.3158 58.0349 10.5009ZM49.6169 30.1577L34.4023 45.1714C33.9492 45.6427 33.3291 45.8785 32.7329 45.8785C32.1129 45.8785 31.4928 45.6427 31.0397 45.1714L22.3831 36.6392C21.4532 35.7201 21.4532 34.2117 22.3831 33.2924C23.3132 32.3732 24.8395 32.3732 25.7695 33.2924L32.7329 40.1746L46.2305 26.8344C47.1605 25.9152 48.6868 25.9152 49.6169 26.8344C50.5468 27.7537 50.5468 29.2386 49.6169 30.1577Z" fill="#8D8D8D"/>
</svg>
