<svg width="145" height="145" viewBox="0 0 145 145" fill="none" xmlns="http://www.w3.org/2000/svg">
<path fill-rule="evenodd" clip-rule="evenodd" d="M72.2349 144.889C111.999 144.889 144.235 112.654 144.235 72.8891C144.235 33.1245 111.999 0.889053 72.2349 0.889053C32.4704 0.889053 0.234863 33.1245 0.234863 72.8891C0.234863 112.654 32.4704 144.889 72.2349 144.889ZM86.2974 91.6391V60.929L92.7461 67.3778C93.8445 68.4761 95.6253 68.4761 96.7236 67.3778C97.822 66.2794 97.822 64.4987 96.7236 63.4003L85.4736 52.1503C84.3753 51.052 82.5945 51.052 81.4961 52.1503L70.2461 63.4003C69.1478 64.4987 69.1478 66.2794 70.2461 67.3778C71.3445 68.4761 73.1253 68.4761 74.2236 67.3778L80.6724 60.929V91.6391C80.6724 93.1924 81.9316 94.4516 83.4849 94.4516C85.0382 94.4516 86.2974 93.1924 86.2974 91.6391ZM58.1724 54.1391V84.8491L51.7236 78.4003C50.6252 77.302 48.8445 77.302 47.7461 78.4003C46.6478 79.4987 46.6478 81.2794 47.7461 82.3778L58.9961 93.6278C60.0945 94.7261 61.8752 94.7261 62.9736 93.6278L74.2236 82.3778C75.3219 81.2794 75.3219 79.4987 74.2236 78.4003C73.1253 77.302 71.3445 77.302 70.2461 78.4003L63.7974 84.8491V54.1391C63.7974 52.5858 62.5382 51.3266 60.9849 51.3266C59.4316 51.3266 58.1724 52.5858 58.1724 54.1391Z" fill="#00ADBF"/>
</svg>
