<svg width="84" height="66" viewBox="0 0 84 66" fill="none" xmlns="http://www.w3.org/2000/svg">
<path fill-rule="evenodd" clip-rule="evenodd" d="M55.4999 19.5077C55.4999 12.0652 49.4424 6.00771 41.9999 6.00771C34.5573 6.00771 28.4999 12.0652 28.4999 19.5077C28.4999 26.9503 34.5573 33.0077 41.9999 33.0077C49.4459 33.0077 55.4999 26.9608 55.4999 19.5077ZM49.4999 19.5077C49.4999 15.373 46.1346 12.0077 41.9999 12.0077C37.8651 12.0077 34.4999 15.373 34.4999 19.5077C34.4999 23.6425 37.8651 27.0077 41.9999 27.0077C46.1366 27.0077 49.4999 23.6483 49.4999 19.5077ZM32.1888 66H51.8079C61.2901 66 68.9964 58.0903 69 48.358V46.6024C69 41.5628 65.0123 37.47 60.1022 37.47H23.8978C18.9877 37.47 15 41.5628 15 46.6024V48.358C15 58.079 22.7065 66 32.1888 66ZM60.0989 43.3661C61.3241 43.3661 63.2554 44.8697 63.2554 46.5984V48.354C63.2554 55.9765 59.2342 60.1113 51.8073 60.1113H32.1882C24.7616 60.1113 20.7447 55.9767 20.7447 48.354V46.5984C20.7447 44.8715 22.6692 43.3661 23.8972 43.3661H60.0989Z" fill="#CDCDCD"/>
</svg>
