<svg width="84" height="66" viewBox="0 0 84 66" fill="none" xmlns="http://www.w3.org/2000/svg">
<path fill-rule="evenodd" clip-rule="evenodd" d="M68.9999 12C72.3136 12 74.9999 14.6863 74.9999 18V22.1166V54C74.9999 57.3137 72.3136 60 68.9999 60H15.0003C11.6866 60 9.00027 57.3137 9.00027 54V22.1459C9.00024 22.1362 9.00023 22.1264 9.00023 22.1166L9.0001 18.0002C8.99999 14.6864 11.6863 12 15.0001 12H15.0003H68.9999ZM15.0003 30.7456V54H68.9999V30.7547L46.9199 43.3125C43.9371 45.2512 40.0927 45.2512 37.1099 43.3125L15.0003 30.7456ZM68.9999 22.1166V21.0007V18.0007H15.0003V22.1334C15.0059 23.1425 15.5187 24.0814 16.3651 24.6317L40.3799 38.2819C41.3742 38.9282 42.6556 38.9282 43.6499 38.2819L67.6499 24.6317C68.501 24.0784 68.9999 23.1321 68.9999 22.1166Z" fill="#CDCDCD"/>
</svg>
