<svg width="84" height="66" viewBox="0 0 84 66" fill="none" xmlns="http://www.w3.org/2000/svg">
<path fill-rule="evenodd" clip-rule="evenodd" d="M9.00018 18C9.00018 14.6863 11.6865 12 15.0002 12H68.9998C72.3135 12 74.9998 14.6863 74.9998 18V54C74.9998 57.3137 72.3135 60 68.9998 60H15.0002C11.6865 60 9.00018 57.3137 9.00018 54V18ZM37.0798 43.3122L15.0002 30.9097V22.4056C15.0877 23.3093 15.5815 24.131 16.3511 24.6314L40.3498 38.2815C41.3441 38.9279 42.6256 38.9279 43.6198 38.2815L67.6198 24.6314C68.4709 24.078 68.9998 23.1321 68.9998 22.1166V30.8916L46.8898 43.3122C43.907 45.2509 40.0626 45.2509 37.0798 43.3122Z" fill="#F4CB29"/>
</svg>
