<svg width="84" height="66" viewBox="0 0 84 66" fill="none" xmlns="http://www.w3.org/2000/svg">
<path d="M71.5536 21.2904H64.362L50.4651 44.9871L54.1116 51.5201L71.5536 21.2904Z" fill="#8D8D8D"/>
<path d="M12.4506 21.2904H19.6422L33.5391 44.9871L29.8926 51.5201L12.4506 21.2904Z" fill="#8D8D8D"/>
<path fill-rule="evenodd" clip-rule="evenodd" d="M57.3756 16.1119C57.3756 18.4327 56.8614 20.6333 55.9407 22.6062L55.9379 22.6123C55.5915 23.3537 55.1877 24.0629 54.7322 24.7342L45.5256 40.9369L54.1118 56.0467L75.1821 19.1616H60.5226V13.0823H80.4023C82.0591 13.0823 83.4023 14.4254 83.4023 16.0823V16.2762C83.4023 16.7986 83.2658 17.312 83.0065 17.7655L56.6866 63.7907C56.1658 64.7012 55.1973 65.2631 54.1484 65.2631C53.1021 65.2631 52.1356 64.7041 51.6139 63.7973L42 47.0863L32.3861 63.7973C31.8644 64.7041 30.8979 65.2631 29.8517 65.2631C28.8027 65.2631 27.8342 64.7012 27.3135 63.7907L0.993503 17.7655C0.734166 17.312 0.597748 16.7986 0.597748 16.2762V16.0823C0.597748 14.4254 1.94089 13.0823 3.59774 13.0823H23.4774V19.1616H8.81787L29.8882 56.0467L38.4744 40.9369L29.2751 24.7431C27.6028 22.2824 26.6256 19.3113 26.6256 16.1119C26.6256 7.62053 33.5092 0.736908 42.0006 0.736908C50.492 0.736908 57.3756 7.62053 57.3756 16.1119ZM42.0006 34.7869L39.8512 31.0504L34.2411 21.2562C33.2215 19.7679 32.6256 17.9709 32.6256 16.0359C32.6256 10.9002 36.8229 6.73691 42.0006 6.73691C47.1783 6.73691 51.3756 10.9002 51.3756 16.0359C51.3756 17.4395 51.0621 18.7705 50.5007 19.9637C50.2895 20.4121 50.0415 20.8448 49.7638 21.2508L44.15 31.0504L42.0006 34.7869Z" fill="#CDCDCD"/>
</svg>
