<svg width="84" height="66" viewBox="0 0 84 66" fill="none" xmlns="http://www.w3.org/2000/svg">
<path fill-rule="evenodd" clip-rule="evenodd" d="M15 12C15 8.68634 17.6862 6 21 6H63C66.3138 6 69 8.68634 69 12V60C69 63.3137 66.3138 66 63 66H21C17.6862 66 15 63.3137 15 60V12ZM21 12H63V60H21V12ZM36 22.5C36 21.6716 36.6716 21 37.5 21H57C57.8284 21 58.5 21.6716 58.5 22.5V25.5C58.5 26.3284 57.8284 27 57 27H37.5C36.6716 27 36 26.3284 36 25.5V22.5ZM36 34.5C36 33.6716 36.6716 33 37.5 33H57C57.8284 33 58.5 33.6716 58.5 34.5V37.5C58.5 38.3284 57.8284 39 57 39H37.5C36.6716 39 36 38.3284 36 37.5V34.5ZM26.239 45C25.4106 45 24.739 45.6716 24.739 46.5V49.5C24.739 50.3284 25.4106 51 26.239 51H29.239C30.0674 51 30.739 50.3284 30.739 49.5V46.5C30.739 45.6716 30.0674 45 29.239 45H26.239ZM36.739 45C35.9106 45 35.239 45.6716 35.239 46.5V49.5C35.239 50.3284 35.9106 51 36.739 51H57C57.8284 51 58.5 50.3284 58.5 49.5V46.5C58.5 45.6716 57.8284 45 57 45H36.739ZM27 33C26.1716 33 25.5 33.6716 25.5 34.5V37.5C25.5 38.3284 26.1716 39 27 39H30C30.8284 39 31.5 38.3284 31.5 37.5V34.5C31.5 33.6716 30.8284 33 30 33H27ZM27 21C26.1716 21 25.5 21.6716 25.5 22.5V25.5C25.5 26.3284 26.1716 27 27 27H30C30.8284 27 31.5 26.3284 31.5 25.5V22.5C31.5 21.6716 30.8284 21 30 21H27Z" fill="#CDCDCD"/>
</svg>
