<svg width="72" height="72" viewBox="0 0 72 72" fill="none" xmlns="http://www.w3.org/2000/svg">
<path d="M50.1428 14.7857V3.00003C50.7679 3.00017 51.3674 3.2486 51.8093 3.69068L68.3093 20.1907C68.7514 20.6326 68.9999 21.2321 69 21.8572H57.2143C55.3388 21.8572 53.5402 21.1122 52.214 19.786C50.8879 18.4599 50.1428 16.6612 50.1428 14.7857ZM19.5 58.334V31.2857H14.7857C11.6611 31.2895 8.66552 32.5324 6.45608 34.7418C4.24664 36.9513 3.00373 39.9468 2.99999 43.0715V58.334C2.99999 60.522 3.86918 62.6204 5.41636 64.1676C6.96353 65.7148 9.06195 66.584 11.25 66.584C13.438 66.584 15.5364 65.7148 17.0836 64.1676C18.6308 62.6204 19.5 60.522 19.5 58.334ZM57.2143 26.5715H69V57.2143C68.9962 60.3389 67.7533 63.3345 65.5439 65.5439C63.3345 67.7534 60.3389 68.9963 57.2143 69H11.25C14.0622 68.9969 16.7584 67.8784 18.7469 65.8898C20.7355 63.9013 21.854 61.2051 21.8571 58.3929V14.7857C21.8609 11.6611 23.1038 8.66556 25.3132 6.45612C27.5227 4.24668 30.5182 3.00378 33.6428 3.00003H45.4286V14.7857C45.4323 17.9104 46.6752 20.9059 48.8846 23.1154C51.0941 25.3248 54.0897 26.5677 57.2143 26.5715ZM31.2857 38.3572C31.2857 39.659 32.341 40.7143 33.6428 40.7143H43.0714C44.3732 40.7143 45.4286 39.659 45.4286 38.3572C45.4286 37.0554 44.3732 36 43.0714 36H33.6428C32.341 36 31.2857 37.0554 31.2857 38.3572ZM59.5714 47.7857C59.5714 46.4839 58.5161 45.4286 57.2143 45.4286H33.6428C32.341 45.4286 31.2857 46.4839 31.2857 47.7857C31.2857 49.0876 32.341 50.1429 33.6428 50.1429H57.2143C58.5161 50.1429 59.5714 49.0876 59.5714 47.7857Z" fill="#8D8D8D"/>
</svg>
