<svg width="72" height="73" viewBox="0 0 72 73" fill="none" xmlns="http://www.w3.org/2000/svg">
<path fill-rule="evenodd" clip-rule="evenodd" d="M32.9999 18.5688C32.9999 26.8531 26.2842 33.5688 17.9999 33.5688C9.71567 33.5688 2.99994 26.8531 2.99994 18.5688C2.99994 10.2845 9.71567 3.5688 17.9999 3.5688C26.2842 3.5688 32.9999 10.2845 32.9999 18.5688ZM19.5861 10.4964C19.4678 10.1706 19.2522 9.88917 18.9684 9.69026C18.6846 9.49135 18.3464 9.38464 17.9998 9.38464C17.6533 9.38464 17.3151 9.49135 17.0313 9.69026C16.7475 9.88917 16.5318 10.1706 16.4136 10.4964L11.3511 23.9964C11.1944 24.4171 11.2113 24.8828 11.3981 25.291C11.5848 25.6993 11.926 26.0166 12.3467 26.1733C12.7674 26.3299 13.2331 26.313 13.6413 26.1263C14.0496 25.9396 14.3669 25.5984 14.5236 25.1777L15.3673 22.8995H20.6323L21.4761 25.1777C21.6327 25.5984 21.9501 25.9396 22.3583 26.1263C22.7666 26.313 23.2323 26.3299 23.653 26.1733C24.0737 26.0166 24.4149 25.6993 24.6016 25.291C24.7883 24.8828 24.8052 24.4171 24.6486 23.9964L19.5861 10.4964ZM16.633 19.5245L17.9998 15.8964L19.3667 19.5245H16.633ZM38.9999 45.5688C38.9999 42.2551 41.6862 39.5688 44.9999 39.5688H62.9999C66.3136 39.5688 68.9999 42.2551 68.9999 45.5688V63.5688C68.9999 66.8825 66.3136 69.5688 62.9999 69.5688H44.9999C41.6862 69.5688 38.9999 66.8825 38.9999 63.5688V45.5688ZM60.7789 47.8215H55.7164V46.134C55.7164 45.6864 55.5387 45.2572 55.2222 44.9407C54.9057 44.6243 54.4765 44.4465 54.0289 44.4465C53.5814 44.4465 53.1522 44.6243 52.8357 44.9407C52.5192 45.2572 52.3414 45.6864 52.3414 46.134V47.8215H47.2789C46.8314 47.8215 46.4022 47.9993 46.0857 48.3157C45.7692 48.6322 45.5914 49.0614 45.5914 49.509C45.5914 49.9565 45.7692 50.3857 46.0857 50.7022C46.4022 51.0187 46.8314 51.1965 47.2789 51.1965H57.2183C56.7175 53.4009 55.6132 55.4225 54.0289 57.0352C53.518 56.5062 53.0443 55.9423 52.6115 55.3477C52.3465 55.006 51.9606 54.779 51.5332 54.7135C51.1058 54.6481 50.6696 54.7492 50.3146 54.996C49.9595 55.2428 49.7128 55.6164 49.6252 56.0398C49.5377 56.4632 49.6159 56.9041 49.8439 57.2715C50.3564 58.0079 50.9203 58.7071 51.5314 59.364C50.4702 60.1888 49.3411 60.9227 48.1564 61.5577C47.7914 61.7774 47.5229 62.1271 47.4049 62.5365C47.287 62.9459 47.3283 63.3848 47.5205 63.7651C47.7128 64.1453 48.0418 64.4388 48.4414 64.5865C48.8411 64.7342 49.2819 64.7253 49.6752 64.5615C51.2215 63.7448 52.6804 62.7723 54.0289 61.659C55.3624 62.7538 56.8043 63.7094 58.3321 64.5108C58.7254 64.6746 59.1662 64.6836 59.5658 64.5359C59.9655 64.3881 60.2945 64.0947 60.4867 63.7145C60.679 63.3342 60.7203 62.8953 60.6023 62.4859C60.4844 62.0764 60.2159 61.7268 59.8508 61.5071C58.6667 60.8775 57.5377 60.1493 56.4758 59.3302C58.6736 57.1135 60.1348 54.2734 60.6608 51.1965C61.1084 51.2121 61.5438 51.0494 61.8714 50.744C62.1989 50.4386 62.3917 50.0156 62.4074 49.568C62.423 49.1205 62.2603 48.685 61.9549 48.3575C61.6495 48.0299 61.2265 47.8371 60.7789 47.8215ZM58.421 20.3688V20.5583L56.1473 18.2846C55.2631 17.4004 53.8105 17.4004 52.9263 18.2846C52.0421 19.1688 52.0421 20.6214 52.9263 21.5056L59.0526 27.632C59.4947 28.0741 60.0631 28.3267 60.6316 28.3267C61.2631 28.3267 61.8316 28.0741 62.2105 27.632L68.3368 21.5056C69.221 20.6214 69.221 19.1688 68.3368 18.2846C67.4526 17.4004 66 17.4004 65.1158 18.2846L62.9052 20.5583V20.3056C62.9052 11.0846 55.3895 3.5688 46.1684 3.5688C44.9052 3.5688 43.8947 4.57933 43.8947 5.84249C43.8947 7.10564 44.9052 8.11617 46.1684 8.11617C52.9263 8.11617 58.421 13.6109 58.421 20.3688ZM25.8947 65.0214H28.7368C29.9999 65.0214 31.0736 66.0319 31.0736 67.2951C31.0736 68.5582 30.0631 69.5687 28.7999 69.5687H25.8947C16.6736 69.5687 9.15784 62.053 9.15784 52.8319V51.5056L6.88415 53.7793C5.99994 54.6635 4.54731 54.6635 3.6631 53.7793C2.77889 52.8951 2.77889 51.4424 3.6631 50.5582L9.78941 44.4319C10.6736 43.6109 12.1894 43.6109 13.0105 44.4319L19.1368 50.5582C20.021 51.4424 20.021 52.8951 19.1368 53.7793C18.6947 54.2214 18.1263 54.474 17.5578 54.474C16.9894 54.474 16.421 54.2214 15.9789 53.7793L13.7052 51.5056V52.8319C13.7052 59.5266 19.1368 65.0214 25.8947 65.0214Z" fill="#8D8D8D"/>
</svg>
