<svg width="72" height="73" viewBox="0 0 72 73" fill="none" xmlns="http://www.w3.org/2000/svg">
<path d="M37.8103 26.2669V32.2669C37.8103 33.0953 38.4819 33.7669 39.3103 33.7669H45.3103C46.1388 33.7669 46.8103 33.0953 46.8103 32.2669V26.2669C46.8103 25.4386 46.1388 24.7669 45.3103 24.7669H39.3103C38.4819 24.7669 37.8103 25.4386 37.8103 26.2669Z" fill="#00ADBF"/>
<path d="M51.3103 26.2669V32.2669C51.3103 33.0953 51.9819 33.7669 52.8103 33.7669H58.8103C59.6388 33.7669 60.3103 33.0953 60.3103 32.2669V26.2669C60.3103 25.4386 59.6388 24.7669 58.8103 24.7669H52.8103C51.9819 24.7669 51.3103 25.4386 51.3103 26.2669Z" fill="#00ADBF"/>
<path fill-rule="evenodd" clip-rule="evenodd" d="M17.9778 19.4686C19.8169 17.4182 22.2713 15.564 25.7586 15.564H63.3103C66.177 15.564 68.0472 17.3984 69.1323 19.2705C70.1907 21.0964 70.8028 23.4032 71.1887 25.6268C71.9691 30.1239 72 35.413 72 38.724V44.9268C72 46.7828 71.4522 48.5835 70.4189 49.9915C69.3867 51.3981 67.7133 52.5792 65.5862 52.5792H63.7042C62.9869 55.4481 60.3919 57.5736 57.3009 57.5736C54.2099 57.5736 51.615 55.4481 50.8977 52.5792H22.3354C21.6182 55.4481 19.0232 57.5736 15.9322 57.5736C12.8412 57.5736 10.2462 55.4481 9.52892 52.5792H5.27586C3.46227 52.5792 2.07367 51.5703 1.24814 50.4453C0.421028 49.3181 0 47.9056 0 46.4777V38.724C0 36.5289 1.51691 34.9879 2.47575 34.1496C3.56808 33.1949 4.99477 32.2742 6.29402 31.4433L6.36637 31.3972C9.19551 29.5881 11.718 27.9753 13.0985 26.0937C13.4313 25.6407 13.7468 25.1958 14.0576 24.7512C14.2573 24.4652 14.4552 24.1792 14.6544 23.8909L14.6836 23.8492L14.6947 23.8327L14.737 23.7712L15.2292 23.0622L15.4612 22.7297C16.2373 21.623 17.0691 20.4819 17.9778 19.4686ZM52.3765 46.5792H20.8567C19.6479 45.2257 17.8895 44.3735 15.9322 44.3735C13.9748 44.3735 12.2164 45.2257 11.0077 46.5792H6.00396C6.00144 46.5477 6 46.514 6 46.4777V39.0825C6.07738 38.9931 6.20931 38.8554 6.42458 38.6672C7.11736 38.0615 8.14574 37.3811 9.52634 36.4985L10.0061 36.1923C12.0781 34.8732 14.7879 33.1484 16.8281 30.9702H28.0345C29.2908 30.9702 30.3103 29.5808 30.3103 27.8687V21.564H63.3179C63.3478 21.5637 63.3545 21.5637 63.4018 21.5974C63.4906 21.6611 63.6886 21.8435 63.9413 22.2796C64.4691 23.19 64.9332 24.6713 65.2771 26.6529C65.9563 30.5666 66 35.3574 66 38.724V44.9268C66 45.6406 65.7836 46.1665 65.5815 46.4418C65.5674 46.4613 65.5542 46.4785 65.5418 46.4939L65.5102 46.5312C65.4922 46.5513 65.4766 46.5671 65.4636 46.5792H62.2254C61.0167 45.2257 59.2583 44.3735 57.3009 44.3735C55.3436 44.3735 53.5852 45.2257 52.3765 46.5792Z" fill="#00ADBF"/>
</svg>
