<svg width="72" height="73" viewBox="0 0 72 73" fill="none" xmlns="http://www.w3.org/2000/svg">
<path d="M34.1897 26.2669V32.2669C34.1897 33.0953 33.5181 33.7669 32.6897 33.7669H26.6897C25.8612 33.7669 25.1897 33.0953 25.1897 32.2669V26.2669C25.1897 25.4386 25.8612 24.7669 26.6897 24.7669H32.6897C33.5181 24.7669 34.1897 25.4386 34.1897 26.2669Z" fill="#00ADBF"/>
<path d="M20.6897 26.2669V32.2669C20.6897 33.0953 20.0181 33.7669 19.1897 33.7669H13.1897C12.3612 33.7669 11.6897 33.0953 11.6897 32.2669V26.2669C11.6897 25.4386 12.3612 24.7669 13.1897 24.7669H19.1897C20.0181 24.7669 20.6897 25.4386 20.6897 26.2669Z" fill="#00ADBF"/>
<path fill-rule="evenodd" clip-rule="evenodd" d="M54.0222 19.4686C52.1831 17.4182 49.7287 15.564 46.2414 15.564H8.68966C5.82298 15.564 3.95279 17.3984 2.86771 19.2705C1.80929 21.0964 1.19724 23.4032 0.811295 25.6268C0.0308533 30.1239 0 35.413 0 38.724V44.9268C0 46.7828 0.54776 48.5835 1.58112 49.9915C2.6133 51.3981 4.28668 52.5792 6.4138 52.5792H8.29582C9.01307 55.4481 11.6081 57.5736 14.6991 57.5736C17.7901 57.5736 20.385 55.4481 21.1023 52.5792H49.6646C50.3818 55.4481 52.9768 57.5736 56.0678 57.5736C59.1588 57.5736 61.7538 55.4481 62.4711 52.5792H66.7241C68.5377 52.5792 69.9263 51.5703 70.7519 50.4453C71.579 49.3181 72 47.9056 72 46.4777V38.724C72 36.5289 70.4831 34.9879 69.5243 34.1496C68.4319 33.1949 67.0052 32.2742 65.706 31.4433L65.6336 31.3972C62.8045 29.5881 60.282 27.9753 58.9015 26.0937C58.5687 25.6407 58.2532 25.1958 57.9424 24.7512C57.7427 24.4652 57.5448 24.1792 57.3456 23.8909L57.3164 23.8492L57.3053 23.8327L57.263 23.7712L56.7708 23.0622L56.5388 22.7297C55.7627 21.623 54.9309 20.4819 54.0222 19.4686ZM19.6235 46.5792H51.1433C52.3521 45.2257 54.1105 44.3735 56.0678 44.3735C58.0252 44.3735 59.7836 45.2257 60.9923 46.5792H65.996C65.9986 46.5477 66 46.514 66 46.4777V39.0825C65.9226 38.9931 65.7907 38.8554 65.5754 38.6672C64.8826 38.0615 63.8543 37.3811 62.4737 36.4985L61.9939 36.1923C59.9219 34.8732 57.2121 33.1484 55.1719 30.9702H43.9655C42.7092 30.9702 41.6897 29.5808 41.6897 27.8687V21.564H8.68211C8.65217 21.5637 8.64548 21.5637 8.59824 21.5974C8.50937 21.6611 8.31139 21.8435 8.0587 22.2796C7.5309 23.19 7.06682 24.6713 6.72292 26.6529C6.04367 30.5666 6 35.3574 6 38.724V44.9268C6 45.6406 6.21636 46.1665 6.41851 46.4418C6.43256 46.4613 6.44582 46.4785 6.45822 46.4939L6.48976 46.5312C6.5078 46.5513 6.52341 46.5671 6.53643 46.5792H9.77458C10.9833 45.2257 12.7417 44.3735 14.6991 44.3735C16.6564 44.3735 18.4148 45.2257 19.6235 46.5792Z" fill="#00ADBF"/>
</svg>
